<?xml version="1.0" encoding="UTF-8" standalone="no"?>
<!-- Generator: Adobe Illustrator 19.0.0, SVG Export Plug-In . SVG Version: 6.00 Build 0)  -->

<svg
   xmlns:dc="http://purl.org/dc/elements/1.1/"
   xmlns:cc="http://creativecommons.org/ns#"
   xmlns:rdf="http://www.w3.org/1999/02/22-rdf-syntax-ns#"
   xmlns:svg="http://www.w3.org/2000/svg"
   xmlns="http://www.w3.org/2000/svg"
   xmlns:sodipodi="http://sodipodi.sourceforge.net/DTD/sodipodi-0.dtd"
   xmlns:inkscape="http://www.inkscape.org/namespaces/inkscape"
   version="1.1"
   id="Layer_1"
   x="0px"
   y="0px"
   viewBox="0 0 512 512"
   style="enable-background:new 0 0 512 512;"
   xml:space="preserve"
   sodipodi:docname="logout.svg"
   inkscape:version="0.92.4 (5da689c313, 2019-01-14)"><metadata
   id="metadata49"><rdf:RDF><cc:Work
       rdf:about=""><dc:format>image/svg+xml</dc:format><dc:type
         rdf:resource="http://purl.org/dc/dcmitype/StillImage" /></cc:Work></rdf:RDF></metadata><defs
   id="defs47" /><sodipodi:namedview
   pagecolor="#ffffff"
   bordercolor="#666666"
   borderopacity="1"
   objecttolerance="10"
   gridtolerance="10"
   guidetolerance="10"
   inkscape:pageopacity="0"
   inkscape:pageshadow="2"
   inkscape:window-width="995"
   inkscape:window-height="683"
   id="namedview45"
   showgrid="false"
   showguides="true"
   inkscape:guide-bbox="true"
   inkscape:zoom="0.4609375"
   inkscape:cx="475.09549"
   inkscape:cy="226.41665"
   inkscape:window-x="407"
   inkscape:window-y="79"
   inkscape:window-maximized="0"
   inkscape:current-layer="g6"><sodipodi:guide
     position="23.322034,247.59322"
     orientation="1,0"
     id="guide4561"
     inkscape:locked="false" /><sodipodi:guide
     position="241.99831,486.96886"
     orientation="1,0"
     id="guide4563"
     inkscape:locked="false" /><sodipodi:guide
     position="272,485.49153"
     orientation="1,0"
     id="guide4565"
     inkscape:locked="false" /><sodipodi:guide
     position="490.30508,572.74576"
     orientation="1,0"
     id="guide4567"
     inkscape:locked="false" /></sodipodi:namedview>
<g
   id="g6">
	<g
   id="g4"
   transform="rotate(-90,219.04173,218.03391)">
		<path
   d="m 427.236,240.999 h -263.04 c -8.284,0 -15.001,6.716 -15.001,15.001 0,8.285 6.717,15 15.001,15 h 263.038 z"
   id="path2"
   inkscape:connector-curvature="0"
   sodipodi:nodetypes="cssscc" />
	</g>
</g>
<g
   id="g12"
   transform="rotate(-90,252.66884,251.66102)">
	<g
   id="g10">
		<path
   d="m 430.471,352.317 c -7.169,-4.146 -16.347,-1.698 -20.496,5.474 C 374.739,418.707 308.872,459.602 233.603,459.602 121.337,459.602 30.001,368.266 30.001,256 c 0,-112.266 91.336,-203.602 203.602,-203.602 75.319,0 141.156,40.933 176.371,101.809 4.148,7.172 13.328,9.619 20.496,5.474 7.171,-4.148 9.621,-13.325 5.474,-20.496 C 395.418,69.127 319.729,22.397 233.603,22.397 104.49,22.397 0,126.876 0,256 c 0,129.113 104.479,233.603 233.603,233.603 86.163,0 161.833,-46.763 202.342,-116.79 4.147,-7.171 1.697,-16.347 -5.474,-20.496 z"
   id="path8"
   inkscape:connector-curvature="0" />
	</g>
</g>
<g
   id="g14">
</g>
<g
   id="g16">
</g>
<g
   id="g18">
</g>
<g
   id="g20">
</g>
<g
   id="g22">
</g>
<g
   id="g24">
</g>
<g
   id="g26">
</g>
<g
   id="g28">
</g>
<g
   id="g30">
</g>
<g
   id="g32">
</g>
<g
   id="g34">
</g>
<g
   id="g36">
</g>
<g
   id="g38">
</g>
<g
   id="g40">
</g>
<g
   id="g42">
</g>
</svg>