<svg height="512" viewBox="0 0 64 64" width="512" xmlns="http://www.w3.org/2000/svg"><g id="flat"><path d="m15 11h12v10h-12z" fill="#ffd782"/><path d="m22 14h2v2h-2z" fill="#394d5c"/><path d="m15 11v-1a3 3 0 0 1 3-3h3a2 2 0 0 0 2-2 2 2 0 0 1 2-2h2v8z" fill="#394d5c"/><path d="m19 57h-6l2-18h6z" fill="#50b4f8"/><path d="m13 57h6a0 0 0 0 1 0 0v4a0 0 0 0 1 0 0h-8a0 0 0 0 1 0 0v-2a2 2 0 0 1 2-2z" fill="#394d5c"/><path d="m23 57h6l-2-18h-6z" fill="#50b4f8"/><path d="m23 57h8a0 0 0 0 1 0 0v4a0 0 0 0 1 0 0h-6a2 2 0 0 1 -2-2v-2a0 0 0 0 1 0 0z" fill="#394d5c" transform="matrix(-1 0 0 -1 54 118)"/><path d="m53 28v-6l6 3z" fill="#f9bb4b"/><path d="m24 24h29v2h-29z" fill="#50b4f8"/><path d="m27 25h10v6h-10z" fill="#fcf05a"/><path d="m15 25h12v14h-12z" fill="#dd3e46"/><path d="m20 24a2.978 2.978 0 0 0 -2.221 1h-2.779v4h2.779a3 3 0 1 0 2.221-5z" fill="#ffd782"/><path d="m15 31-8.233-1.647a2.2 2.2 0 0 1 -1.767-2.153 2.2 2.2 0 0 1 2.2-2.2h7.8z" fill="#fcf05a"/><path d="m37.293 40.707-15-15a1 1 0 0 1 .141-1.531l16.575-11.367 1.576 1.315-16.027 11.019 14.673 14.674z" fill="#f9bb4b"/><path d="m35 44c0-2.036 1.129-3.2 3-4 3.994-1.713 7-6.351 7-13 0-6.778-2.885-12.141-7-14-1.771-.8-3-2.057-3-4v-3h1a3 3 0 0 1 3 3c5.523 0 10 8.611 10 18s-4.477 17-10 17a3 3 0 0 1 -3 3h-1z" fill="#ad6327"/><path d="m46 24a2.978 2.978 0 0 0 -2.221 1h-6.779v4h6.779a3 3 0 1 0 2.221-5z" fill="#ffd782"/></g></svg>