<?xml version="1.0" encoding="iso-8859-1"?>
<!-- Generator: Adobe Illustrator 19.0.0, SVG Export Plug-In . SVG Version: 6.00 Build 0)  -->
<svg version="1.1" id="Capa_1" xmlns="http://www.w3.org/2000/svg" xmlns:xlink="http://www.w3.org/1999/xlink" x="0px" y="0px"
	 viewBox="0 0 511.997 511.997" style="enable-background:new 0 0 511.997 511.997;" xml:space="preserve">
<g>
	<path style="fill:#FFB69E;" d="M137.885,507.543c-9.709-7.334-11.634-21.151-4.301-30.86l49.906-72.679l17.289-89.219
		c2.591-11.888,14.327-19.429,26.22-16.834c11.889,2.592,19.425,14.331,16.834,26.22l-18.32,93.946
		c-0.679,3.114-2.025,6.044-3.947,8.586l-52.822,76.539C161.435,512.921,147.624,514.899,137.885,507.543z"/>
	<path style="fill:#FFB69E;" d="M286.457,511.997c-0.158,0-0.315-0.002-0.474-0.005c-12.166-0.257-21.819-10.327-21.563-22.493
		l1.762-90.05l-20.172-68.356c-3.969-11.502,2.136-24.045,13.639-28.016c11.503-3.971,24.045,2.136,28.016,13.639l21.455,72.075
		c0.849,2.46,1.255,5.052,1.2,7.654l-1.845,93.985C308.222,502.436,298.408,511.996,286.457,511.997z"/>
</g>
<g>
	<path style="fill:#3C5A73;" d="M229.44,400.114l14.395-75.942c2.592-11.889-4.945-23.628-16.834-26.22
		c-11.894-2.596-23.628,4.945-26.22,16.834l-14.537,76.593L229.44,400.114z"/>
	<path style="fill:#3C5A73;" d="M266.183,399.448l42.937-10.657l-21.455-72.075c-3.971-11.502-16.512-17.61-28.016-13.639
		c-11.502,3.971-17.608,16.513-13.639,28.016L266.183,399.448z"/>
</g>
<path style="fill:#FFB69E;" d="M412.082,144.083c-5.244-7.469-15.549-9.274-23.019-4.03l-48.046,33.728l-60.398,3.423h-62.788
	l-55.295-8.826l-30.74-55.241c-4.438-7.974-14.498-10.841-22.475-6.404c-7.974,4.438-10.842,14.5-6.404,22.475l34.644,62.258
	c2.465,4.431,6.828,7.483,11.835,8.283l46.965,7.496v127.806h97.645V209.278l53.451-2.733c3.106-0.159,6.105-1.191,8.65-2.978
	l51.943-36.464C415.521,161.858,417.325,151.553,412.082,144.083z"/>
<path style="fill:#82BE50;" d="M280.619,177.204h-15.364c0.355,9.783-8.729,18.091-18.217,18.091
	c-10.169,0-17.705-8.276-18.207-18.091h-10.999l-47.628-7.602l-5.194,32.638l31.353,5.005v127.806h97.645V209.278l35.61-1.821
	l-3.436-32.834L280.619,177.204z"/>
<circle style="fill:#FFB69E;" cx="245.19" cy="124.523" r="38.205"/>
<path style="fill:#965028;" d="M107.922,162.595c-2.056,0-4.137-0.575-5.99-1.778c-5.103-3.313-6.553-10.135-3.239-15.239
	l51.254-78.929c3.313-5.102,10.136-6.552,15.239-3.239c5.103,3.313,6.553,10.135,3.239,15.239l-51.254,78.929
	C115.061,160.827,111.528,162.595,107.922,162.595z"/>
<path style="fill:#B4D7DC;" d="M360.038,94.916c-1.276,1.383-3.16,2.035-5.018,1.737c-1.858-0.298-3.443-1.505-4.225-3.217
	l-15.318-33.608c-0.575-1.261-0.337-2.744,0.603-3.762c0.94-1.018,2.399-1.374,3.702-0.902l34.725,12.581
	c1.769,0.641,3.1,2.125,3.545,3.953c0.445,1.828-0.054,3.758-1.33,5.141L360.038,94.916z"/>
<circle style="fill:#87AFB9;" cx="339.322" cy="59.054" r="10.478"/>
<ellipse transform="matrix(0.5446 -0.8387 0.8387 0.5446 45.0522 170.3654)" style="fill:#B4D7DC;" cx="179.404" cy="43.697" rx="47.036" ry="34.466"/>
<g>
</g>
<g>
</g>
<g>
</g>
<g>
</g>
<g>
</g>
<g>
</g>
<g>
</g>
<g>
</g>
<g>
</g>
<g>
</g>
<g>
</g>
<g>
</g>
<g>
</g>
<g>
</g>
<g>
</g>
</svg>
