<?xml version="1.0" encoding="iso-8859-1"?>
<!-- Generator: Adobe Illustrator 19.0.0, SVG Export Plug-In . SVG Version: 6.00 Build 0)  -->
<svg version="1.1" id="Capa_1" xmlns="http://www.w3.org/2000/svg" xmlns:xlink="http://www.w3.org/1999/xlink" x="0px" y="0px"
	 viewBox="0 0 512.002 512.002" style="enable-background:new 0 0 512.002 512.002;" xml:space="preserve">
<path style="fill:#FFB69E;" d="M386.644,121.433L335.183,87.46c-15.937-10.522-37.387-6.131-47.908,9.806L189.53,245.323
	l-52.803,134.735L60.758,467.24c-9.802,11.248-8.629,28.312,2.619,38.114c11.249,9.803,28.313,8.626,38.112-2.619l79.028-90.693
	c2.025-2.323,3.637-4.976,4.767-7.843L235.845,275.9l62.86,41.499l97.745-148.057C406.972,153.404,402.582,131.955,386.644,121.433z
	"/>
<circle style="fill:#FA503C;" cx="142.932" cy="214.3" r="46.596"/>
<path style="fill:#FFB69E;" d="M109.142,201.763c-9.781-8.269-11.006-22.902-2.737-32.683l67.916-80.327
	c4.409-5.215,10.889-8.218,17.71-8.218c0.072,0,0.144,0.001,0.217,0.001l124.883,1.165c12.807,0.12,23.093,10.599,22.973,23.407
	c-0.118,12.734-10.48,22.974-23.186,22.975c-0.074,0-0.147-0.001-0.222-0.001l-113.989-1.064l-60.882,72.009
	C133.534,208.832,118.899,210.012,109.142,201.763z"/>
<path style="fill:#FA870A;" d="M317.13,81.701l-71.909-0.671v46.385l71.475,0.667c0.075,0.001,0.148,0.001,0.222,0.001
	c12.706-0.001,23.067-10.242,23.186-22.975C340.223,92.3,329.937,81.82,317.13,81.701z"/>
<path style="fill:#FFB69E;" d="M307.65,512c-16.595,0-29.177-14.731-26.752-31l18.289-122.716L237.345,265.5
	c-8.274-12.415-4.919-29.186,7.497-37.461c12.413-8.272,29.185-4.919,37.461,7.496l67.618,101.449
	c3.717,5.577,5.228,12.336,4.24,18.965l-19.825,133.015C332.337,502.371,320.808,512,307.65,512z"/>
<g>
	<path style="fill:#3C5A73;" d="M200.912,364.542l34.933-88.643l62.86,41.499l97.745-148.057
		c10.522-15.937,6.131-37.387-9.806-47.908L335.183,87.46c-15.937-10.522-37.387-6.131-47.908,9.806L189.53,245.323L150.206,345.66
		L200.912,364.542z"/>
	<path style="fill:#3C5A73;" d="M299.188,358.285l50.733-21.3l-67.618-101.449c-8.275-12.415-25.048-15.769-37.461-7.496
		c-12.415,8.275-15.771,25.046-7.497,37.461L299.188,358.285z"/>
</g>
<path style="fill:#FFA50A;" d="M251.976,286.549l-62.447-41.227l97.745-148.057c10.522-15.937,31.971-20.328,47.908-9.806
	l51.461,33.974c15.937,10.522,20.328,31.971,9.806,47.908l-78.756,119.293L251.976,286.549z"/>
<g>
	<circle style="fill:#FFB69E;" cx="406.702" cy="51.19" r="51.19"/>
	<path style="fill:#FFB69E;" d="M406.301,299.866l-82.594-41.99c-6.923-3.52-11.624-10.27-12.525-17.985l-13.091-112.183
		c-1.485-12.722,7.625-24.238,20.348-25.723c12.721-1.492,24.238,7.625,25.723,20.348l11.65,99.832l71.51,36.356
		c11.418,5.805,15.968,19.765,10.163,31.183C431.686,301.106,417.727,305.677,406.301,299.866z"/>
</g>
<path style="fill:#FA870A;" d="M304.992,186.851l45.909-6.761l-6.74-57.758c-1.485-12.722-13.002-21.84-25.723-20.348
	c-12.722,1.485-21.832,13.001-20.347,25.723L304.992,186.851z"/>
<g>
</g>
<g>
</g>
<g>
</g>
<g>
</g>
<g>
</g>
<g>
</g>
<g>
</g>
<g>
</g>
<g>
</g>
<g>
</g>
<g>
</g>
<g>
</g>
<g>
</g>
<g>
</g>
<g>
</g>
</svg>
