<?xml version="1.0" encoding="UTF-8" standalone="no"?>
<svg
   xmlns:dc="http://purl.org/dc/elements/1.1/"
   xmlns:cc="http://creativecommons.org/ns#"
   xmlns:rdf="http://www.w3.org/1999/02/22-rdf-syntax-ns#"
   xmlns:svg="http://www.w3.org/2000/svg"
   xmlns="http://www.w3.org/2000/svg"
   xmlns:sodipodi="http://sodipodi.sourceforge.net/DTD/sodipodi-0.dtd"
   xmlns:inkscape="http://www.inkscape.org/namespaces/inkscape"
   version="1.1"
   id="Capa_1"
   x="0px"
   y="0px"
   width="612px"
   height="612px"
   viewBox="0 0 612 612"
   style="enable-background:new 0 0 612 612;"
   xml:space="preserve"
   sodipodi:docname="down-arrow.svg"
   inkscape:version="1.0.1 (3bc2e813f5, 2020-09-07)"><metadata
   id="metadata44"><rdf:RDF><cc:Work
       rdf:about=""><dc:format>image/svg+xml</dc:format><dc:type
         rdf:resource="http://purl.org/dc/dcmitype/StillImage" /></cc:Work></rdf:RDF></metadata><defs
   id="defs42" /><sodipodi:namedview
   pagecolor="#ffffff"
   bordercolor="#666666"
   borderopacity="1"
   objecttolerance="10"
   gridtolerance="10"
   guidetolerance="10"
   inkscape:pageopacity="0"
   inkscape:pageshadow="2"
   inkscape:window-width="1920"
   inkscape:window-height="1001"
   id="namedview40"
   showgrid="false"
   inkscape:zoom="1.3562092"
   inkscape:cx="306"
   inkscape:cy="304.5253"
   inkscape:window-x="-9"
   inkscape:window-y="-9"
   inkscape:window-maximized="1"
   inkscape:current-layer="Capa_1" />
<g
   id="g7">
	<g
   id="_x33__24_">
		<g
   id="g4">
			<path
   d="M306,0C136.992,0,0,136.992,0,306s136.992,306,306,306s306-137.012,306-306S475.008,0,306,0z M469.231,246.311     l-146.439,146.44c-4.59,4.59-10.863,6.005-16.811,4.973c-5.929,1.052-12.221-0.383-16.811-4.973l-146.44-146.44     c-7.478-7.478-7.478-19.565,0-27.043s19.584-7.478,27.042,0L306,355.457l136.189-136.189c7.478-7.478,19.584-7.478,27.042,0     C476.71,226.727,476.71,238.833,469.231,246.311z"
   id="path2" />
		</g>
	</g>
</g>
<path
   style="fill:#ffffff;stroke-width:36.8675;stroke-linecap:round;stroke-linejoin:round"
   d="m 294.57108,395.90851 c -2.58194,-1.15977 -19.95595,-18.12789 -78.31331,-76.4838 -83.43867,-83.43659 -79.36351,-78.87872 -78.54964,-87.8542 0.48391,-5.33674 2.59923,-9.48465 6.57037,-12.8838 2.98915,-2.5586 8.68434,-4.85538 12.03957,-4.85538 0.86665,0 3.37793,0.52464 5.58063,1.16587 3.90025,1.13541 5.82617,2.98533 73.69343,70.78554 38.32868,38.29082 70.01222,69.61967 70.40787,69.61967 0.39565,0 32.07919,-31.33149 70.40787,-69.62553 l 69.68852,-69.62553 4.42409,-1.26981 c 15.6191,-4.48303 28.99437,11.75006 21.724,26.36562 -2.42711,4.8792 -150.34468,152.64691 -154.81556,154.65871 -4.78171,2.15167 -18.07012,2.15321 -22.85784,0.003 z"
   id="path869" /></svg>
