<?xml version="1.0" encoding="iso-8859-1"?>
<!-- Generator: Adobe Illustrator 19.0.0, SVG Export Plug-In . SVG Version: 6.00 Build 0)  -->
<svg version="1.1" id="Capa_1" xmlns="http://www.w3.org/2000/svg" xmlns:xlink="http://www.w3.org/1999/xlink" x="0px" y="0px"
	 viewBox="0 0 512.001 512.001" style="enable-background:new 0 0 512.001 512.001;" xml:space="preserve">
<path style="fill:#CECECC;" d="M342.125,240.995c-1.436,0-2.889-0.394-4.191-1.22c-3.655-2.319-4.738-7.161-2.419-10.816
	L476.149,7.317c2.319-3.654,7.161-4.739,10.816-2.418c3.655,2.319,4.738,7.161,2.419,10.816L348.75,237.355
	C347.257,239.707,344.718,240.995,342.125,240.995z"/>
<path style="fill:#B7B7B7;" d="M342.092,233.342l140.633-221.64c1.579-2.488,4.328-3.781,7.075-3.623
	c-0.614-1.26-1.565-2.374-2.836-3.18c-3.656-2.32-8.497-1.236-10.816,2.418L335.515,228.958c-2.319,3.655-1.236,8.497,2.419,10.816
	c1.164,0.739,2.448,1.114,3.733,1.189C340.522,238.601,340.582,235.722,342.092,233.342z"/>
<path style="fill:#CECECC;" d="M375.051,233.839c-1.676,0-3.365-0.535-4.792-1.641l-32.392-25.078
	c-3.422-2.65-4.049-7.572-1.399-10.994c2.65-3.422,7.572-4.049,10.994-1.399l32.392,25.078c3.422,2.65,4.049,7.572,1.399,10.994
	C379.709,232.793,377.391,233.839,375.051,233.839z"/>
<path style="fill:#B7B7B7;" d="M359.058,223.197c-3.422-2.65-4.049-7.572-1.399-10.994c2.232-2.882,6.072-3.771,9.273-2.402
	l-19.471-15.073c-3.422-2.649-8.345-2.023-10.994,1.399c-2.65,3.422-2.023,8.345,1.399,10.994l32.392,25.078
	c0.522,0.404,1.088,0.707,1.667,0.96L359.058,223.197z"/>
<path style="fill:#EAEAE4;" d="M363.785,236.93c0,15.402-12.497,27.909-27.909,27.909H258.01c-4.514,0-8.923-1.097-12.863-3.145
	c-2.079-1.076-4.033-2.424-5.789-4.002l-11.034-9.916l-27.188-47.647l24.472-29.853l19.425,17.46l23.677,21.285h67.166
	C351.288,209.021,363.785,221.518,363.785,236.93z"/>
<g>
	<path style="fill:#CECECC;" d="M335.873,251.252h-77.866c-6.886,0-13.542-2.56-18.651-7.147l-11.034-9.916l-2.225-63.475
		l-0.492-0.442l2.717,77.5l11.034,9.916c5.11,4.587,11.766,7.147,18.651,7.147h77.866c15.412,0,27.909-12.507,27.909-27.909
		c0-2.344-0.293-4.618-0.837-6.793C359.911,242.258,348.942,251.252,335.873,251.252z"/>
	<path style="fill:#CECECC;" d="M245.147,261.694c-2.079-1.076-4.033-2.424-5.789-4.002l-11.034-9.916l-27.188-47.647l24.472-29.853
		l19.425,17.46C224.523,203.7,245.147,261.694,245.147,261.694z"/>
</g>
<path style="fill:#EAEAE4;" d="M311.569,358.41l-83.205-83.205l-0.136-88.722c-0.063-18.192-9.404-34.22-23.542-43.551l-0.142-0.002
	c33.69-6.031,59.268-35.463,59.268-70.889C263.811,32.254,231.557,0,191.77,0S119.73,32.254,119.73,72.041
	c0,22.145,9.991,41.955,25.711,55.17c-12.232,5.883-23.346,13.717-32.926,23.118l-31.64,52.161
	c-3.427,11.295-5.266,23.28-5.266,35.683v37.24c0,12.716,2.529,25.193,7.314,36.718c4.775,11.536,11.797,22.131,20.794,31.128
	l35.015,35.025L69.12,447.561l39.299,40.197l0.167-0.178L132.66,512l4.472-4.462c13.364-13.375,13.364-35.035,0-48.389
	l61.221-60.991c10.971-10.992,10.971-28.777,0-39.748l-13.375-13.385c-6.666-6.656-1.944-18.035,7.461-18.035
	c2.257,0,4.974,0.648,7.502,1.714c2.55,1.045,4.932,2.497,6.52,4.106l45.484,45.474l-69.622,69.277l39.299,40.197l0.167-0.178
	L245.875,512l4.462-4.462c13.322-13.333,13.354-34.91,0.105-48.274l61.127-61.106C322.54,387.166,322.54,369.382,311.569,358.41z"/>
<g>
	<path style="fill:#CECECC;" d="M132.619,487.581l-0.167,0.178l-39.299-40.197l58.129-57.85c6.337-6.307,6.35-16.561,0.029-22.883
		l-23.561-23.569c-8.997-8.997-16.018-19.592-20.794-31.128c-4.786-11.525-7.314-24.001-7.314-36.718v-37.24
		c0-12.403,1.839-24.388,5.266-35.683l22.109-36.449c10.079-16.616,24.603-30.174,42.09-38.654c0.122-0.06,0.244-0.118,0.367-0.177
		c-15.721-13.215-25.712-33.025-25.712-55.17c0-35.691,25.961-65.301,60.024-71.024C199.877,0.359,195.866,0,191.77,0
		c-39.787,0-72.041,32.254-72.041,72.041c0,22.145,9.991,41.955,25.711,55.17c-12.232,5.883-23.346,13.717-32.926,23.118
		l-31.64,52.161c-3.427,11.295-5.266,23.28-5.266,35.683v37.24c0,12.716,2.529,25.193,7.314,36.718
		c4.775,11.536,11.797,22.131,20.794,31.128l35.015,35.025L69.12,447.561l39.299,40.197l0.167-0.178L132.66,512l4.472-4.462
		c2.672-2.674,4.799-5.681,6.403-8.885L132.619,487.581z"/>
	<path style="fill:#CECECC;" d="M245.824,487.581l-0.167,0.178l-39.299-40.197l58.135-57.847c6.339-6.308,6.351-16.564,0.027-22.887
		l-34.025-34.017c-1.588-1.609-3.971-3.062-6.52-4.106c-2.529-1.066-5.245-1.714-7.502-1.714c-4.568,0-8.027,2.689-9.616,6.214
		l45.091,45.081l-69.622,69.277l39.299,40.197l0.167-0.178l24.085,24.419l4.462-4.462c2.672-2.674,4.8-5.684,6.403-8.889
		L245.824,487.581z"/>
</g>
<ellipse style="fill:#455256;" cx="231.885" cy="72.041" rx="31.93" ry="48.995"/>
<path style="fill:#313C3F;" d="M216.067,72.041c0-22.787,10.139-41.938,23.872-47.419c-2.575-1.027-5.275-1.577-8.058-1.577
	c-17.635,0-31.93,21.936-31.93,48.994s14.295,48.995,31.93,48.995c2.784,0,5.484-0.55,8.058-1.577
	C226.206,113.979,216.067,94.828,216.067,72.041z"/>
<path style="fill:#EAEAE4;" d="M135.086,163.026l-53.58-24.306l4.635-76.593c0.997-16.491-11.659-31.201-28.165-31.886
	C41.974,29.577,28.321,41.85,27.35,57.907l-5.9,97.495c-0.117,1.945-0.042,3.869,0.213,5.75c1.346,9.91,7.681,18.625,17.028,22.865
	l72.045,32.683c14.822,6.724,32.287,0.16,39.011-14.662l0,0C156.472,187.217,149.907,169.75,135.086,163.026z"/>
<path style="fill:#CECECC;" d="M133.725,216.7L61.68,184.016c-9.347-4.24-15.681-12.956-17.028-22.865
	c-0.256-1.881-0.331-3.806-0.213-5.75l5.9-97.495c0.696-11.51,7.909-21.074,17.831-25.324c-3.144-1.369-6.577-2.192-10.194-2.343
	c-16.002-0.664-29.655,11.61-30.626,27.667l-5.9,97.495c-0.117,1.945-0.042,3.869,0.213,5.75c1.346,9.91,7.681,18.625,17.028,22.865
	l72.045,32.683c7.811,3.543,16.355,3.393,23.675,0.292C134.184,216.894,133.953,216.804,133.725,216.7z"/>
<g>
	<ellipse style="fill:#313C3F;" cx="244.424" cy="86.659" rx="4.877" ry="8.707"/>
	<ellipse style="fill:#313C3F;" cx="234.675" cy="103.727" rx="4.877" ry="8.707"/>
	<ellipse style="fill:#313C3F;" cx="219.346" cy="88.399" rx="4.877" ry="8.707"/>
	<ellipse style="fill:#313C3F;" cx="251.393" cy="58.446" rx="4.877" ry="8.707"/>
	<ellipse style="fill:#313C3F;" cx="234.675" cy="64.716" rx="4.877" ry="8.707"/>
</g>
<g>
</g>
<g>
</g>
<g>
</g>
<g>
</g>
<g>
</g>
<g>
</g>
<g>
</g>
<g>
</g>
<g>
</g>
<g>
</g>
<g>
</g>
<g>
</g>
<g>
</g>
<g>
</g>
<g>
</g>
</svg>
