<svg height="511pt" viewBox="-4 0 511 511.9854" width="511pt" xmlns="http://www.w3.org/2000/svg"><path d="m478.933594 411.683594c-1.214844.171875-2.515625.433594-3.90625.691406l-63.175782 11.890625c-8.464843 1.558594-17.15625-1.132813-23.257812-7.203125l-.777344-.78125-87.042968-87.648438-6.332032-6.332031-21.957031-22.128906 26.207031-42.957031.953125 19.960937c.441407 12.117188 2.421875 24.132813 5.902344 35.75l2.429687 8.507813 16.75 31.238281 34.625 34.886719 28.464844 28.722656c1.699219-.492188 3.355469-1.128906 4.945313-1.910156 6.964843-3.550782 12.175781-9.796875 14.421875-17.285156 2.242187-7.492188 1.328125-15.574219-2.535156-22.371094l-7.808594-13.363282-24.472656-42.175781c-9.832032-17.242187-15.425782-36.578125-16.3125-56.40625l-2.953126-67.949219c-.726562-15.457031-8.914062-29.597656-21.953124-37.921874l-31.875-20.289063c8.46875 4.792969 18.035156 7.3125 27.769531 7.316406 29.464843-.007812 53.355469-23.886719 53.371093-53.355469 0-5.984374-2.953124-8.761718-4.773437-14.144531-1.144531.613281-2.371094 1.054688-3.644531 1.304688 10.226562-3.359375 16.335937-13.824219 14.230468-24.378907-6.046874-19.34375-21.753906-44.671874-62.722656-44.671874-64.914062 0-79.316406 49.617187-50.855468 84.234374.304687 16.160157 8.316406 31.203126 21.558593 40.476563l-30.835937-19.621094c-10.183594-6.523437-22.496094-8.855469-34.363282-6.511719l-76.367187 14.582032c-6.121094 1.164062-11.78125 4.054687-16.3125 8.328125-19.101563 17.921875-20.109375 47.917969-2.257813 67.082031l49.8125 53.371094 1.214844 1.125v.089844l-2.777344 6.59375c-6.960937 16.527343-15.414062 32.386718-25.253906 47.382812l-48.074218 73.066406c-14.921876 22.691406-34.46875 41.972656-57.363282 56.582032l-38.527344 24.382812c-13.0624995 8.773438-16.539062 26.46875-7.769531 39.53125 8.773438 13.058594 26.46875 16.535156 39.53125 7.765625l23.167969-14.667969c38.816406-23.804687 72.027344-55.714844 97.367188-93.546875l5.640624-8.589843c3.503907-5.25 9.394532-8.40625 15.707032-8.417969h77.234375l-40.265625 68.121093-10.5 17.789063c-8.082032 13.28125-4.476563 30.550781 8.242187 39.484375 6.546875 4.300781 14.570313 5.710938 22.191407 3.90625 7.617187-1.808594 14.15625-6.671875 18.074218-13.449219l13.191406-22.042969h.085938l48.683594-81.3125 65.953125 74.195313c6.117187 6.785156 15.316406 9.90625 24.296875 8.246094l62.222656-11.714844c16.148438-1.371094 28.355469-15.222656 27.683594-31.414063.234375-6.4375-2.421875-12.640624-7.246094-16.910156-4.820312-4.265625-11.300781-6.152344-17.660156-5.132812zm-256.433594-248.625-13.191406 31.242187-24.296875-26.035156zm0 0" fill="#ed634c"/><path d="m372.367188 319.175781c-9.832032-17.242187-15.425782-36.578125-16.3125-56.40625l-2.953126-67.949219c-.726562-15.457031-8.914062-29.597656-21.953124-37.921874l-67.777344-43.128907c-10.183594-6.523437-22.496094-8.855469-34.363282-6.511719l-76.367187 14.582032c-6.121094 1.164062-11.78125 4.054687-16.3125 8.328125-19.101563 17.921875-20.109375 47.917969-2.257813 67.082031l49.8125 53.371094 40.4375-40.355469 13.191407 14.148437c10.542969 11.273438 10.199219 28.890626-.78125 39.742188l35.753906 36.015625 26.207031-42.957031.953125 19.960937c.441407 12.117188 2.421875 24.132813 5.902344 35.75l2.429687 8.507813 16.75 31.238281 34.625 34.886719 37.488282-26.207032zm-163.058594-124.875-24.296875-26.035156 37.488281-5.207031zm0 0" fill="#944143"/><path d="m372.019531 77.730469c-1.300781.347656-2.644531.523437-3.992187.519531h-46.425782c-5.207031 0-8.679687 2.601562-8.679687 7.894531-.011719 5.222657-4.246094 9.449219-9.464844 9.460938h-28.550781c-.433594-.519531-.78125-.953125-1.128906-1.390625-.402344-.410156-.777344-.84375-1.128906-1.300782-28.460938-34.617187-14.058594-84.234374 50.863281-84.234374 40.960937 0 56.667969 25.328124 62.742187 44.671874 2.101563 10.554688-4.007812 21.019532-14.234375 24.378907zm0 0" fill="#ed634c"/><path d="m236.730469 264.15625-.085938-.085938c-.171875.171876-.261719.433594-.433593.609376-11.566407 10.65625-29.550782 10.039062-40.351563-1.390626l-10.761719-11.453124v-.089844l-1.214844-1.125 40.4375-40.355469 13.191407 14.148437c10.542969 11.273438 10.199219 28.890626-.78125 39.742188zm0 0" fill="#394f63"/><path d="m323.683594 394.414062-48.683594 81.3125h-.085938l-51.199218-25.6875 40.265625-68.121093h-77.234375c-6.3125.011719-12.203125 3.167969-15.707032 8.417969l-5.640624 8.589843c-25.339844 37.832031-58.550782 69.742188-97.367188 93.546875l-23.167969 14.667969 21-13.363281-32.628906-46.601563-20.132813 12.667969 38.527344-24.382812c22.894532-14.609376 42.441406-33.890626 57.363282-56.582032l48.074218-73.066406c9.839844-14.996094 18.292969-30.855469 25.253906-47.382812l2.777344-6.59375 10.761719 11.453124c5.003906 5.289063 11.824219 8.480469 19.089844 8.9375l76.105469 85.566407zm0 0" fill="#a5b4b4"/><path d="m274.914062 475.726562-13.191406 22.042969c-3.917968 6.777344-10.457031 11.640625-18.074218 13.449219-7.621094 1.804688-15.644532.394531-22.191407-3.90625-12.71875-8.933594-16.324219-26.203125-8.242187-39.484375l10.5-17.789063zm0 0" fill="#394f63"/><path d="m65.863281 493.777344-21 13.363281c-13.0625 8.769531-30.757812 5.292969-39.53125-7.765625-8.769531-13.0625-5.2929685-30.757812 7.769531-39.53125l20.132813-12.667969zm0 0" fill="#394f63"/><path d="m392.761719 414.371094c-1.589844.78125-3.246094 1.417968-4.945313 1.910156l-28.464844-28.722656 37.488282-26.207032 7.808594 13.363282c3.863281 6.796875 4.777343 14.878906 2.535156 22.371094-2.246094 7.488281-7.457032 13.734374-14.421875 17.285156zm0 0" fill="#394f63"/><g fill="#bddcf3"><path d="m217.464844 17.355469h-95.457032c-4.792968 0-8.675781-3.886719-8.675781-8.675781 0-4.792969 3.882813-8.679688 8.675781-8.679688h95.457032c4.792968 0 8.679687 3.886719 8.679687 8.679688 0 4.789062-3.886719 8.675781-8.679687 8.675781zm0 0"/><path d="m217.464844 52.066406h-43.386719c-4.792969 0-8.679687-3.882812-8.679687-8.675781s3.886718-8.679687 8.679687-8.679687h43.386719c4.792968 0 8.679687 3.886718 8.679687 8.679687s-3.886719 8.675781-8.679687 8.675781zm0 0"/><path d="m130.6875 260.339844h-60.746094c-4.792968 0-8.679687-3.886719-8.679687-8.679688 0-4.792968 3.886719-8.675781 8.679687-8.675781h60.746094c4.792969 0 8.675781 3.882813 8.675781 8.675781 0 4.792969-3.882812 8.679688-8.675781 8.679688zm0 0"/><path d="m130.6875 295.050781h-26.035156c-4.792969 0-8.679688-3.886719-8.679688-8.679687 0-4.789063 3.886719-8.675782 8.679688-8.675782h26.035156c4.792969 0 8.675781 3.886719 8.675781 8.675782 0 4.792968-3.882812 8.679687-8.675781 8.679687zm0 0"/></g><path d="m380.4375 90.570312c-.277344 29.132813-23.632812 52.777344-52.757812 53.410157-29.125.632812-53.488282-21.976563-55.03125-51.066407.351562.457032.726562.890626 1.128906 1.300782.347656.4375.695312.871094 1.128906 1.390625h28.550781c5.21875-.011719 9.453125-4.238281 9.464844-9.460938 0-5.292969 3.472656-7.894531 8.679687-7.894531h46.425782c1.347656.003906 2.691406-.171875 3.992187-.519531 1.273438-.25 2.503907-.691407 3.644531-1.304688 1.824219 5.382813 4.773438 8.160157 4.773438 14.144531zm0 0" fill="#fedebb"/><path d="m503.839844 433.726562c.671875 16.191407-11.535156 30.042969-27.683594 31.414063l-62.222656 11.714844c-8.980469 1.660156-18.179688-1.460938-24.296875-8.246094l-65.953125-74.195313-32.628906-36.621093-76.105469-85.566407c7.820312.5 15.507812-2.230468 21.261719-7.546874.171874-.175782.261718-.4375.433593-.609376l.085938.085938 35.753906 36.015625 21.957031 22.128906 6.332032 6.332031 87.042968 87.648438.777344.78125c6.101562 6.070312 14.792969 8.761719 23.257812 7.203125l63.175782-11.890625c1.390625-.257812 2.691406-.519531 3.90625-.691406 6.359375-1.019532 12.839844.867187 17.660156 5.132812 4.824219 4.269532 7.480469 10.472656 7.246094 16.910156zm0 0" fill="#586270"/></svg>