<svg height="512" viewBox="0 0 512 512" width="512" xmlns="http://www.w3.org/2000/svg"><g id="flat"><path d="m308.216 496a8 8 0 0 1 -8-8v-27.974a8 8 0 1 1 16 0v27.974a8 8 0 0 1 -8 8z" fill="#5ebef7"/><path d="m348.216 496a8 8 0 0 1 -8-8v-27.281a8 8 0 1 1 16 0v27.281a8 8 0 0 1 -8 8z" fill="#5ebef7"/><path d="m364.216 496h-70.447a8 8 0 0 1 0-16h70.447a16.018 16.018 0 0 0 16-16 8 8 0 0 1 16 0 32.036 32.036 0 0 1 -32 32z" fill="#a6deff"/><path d="m89.836 280.411 30.173 10.057a8 8 0 1 1 -5.06 15.179l-30.172-10.058z" fill="#5ebef7"/><path d="m81.836 307.105 31.692 10.564a8 8 0 1 1 -5.059 15.179l-31.692-10.564z" fill="#5ebef7"/><path d="m95.308 376a7.983 7.983 0 0 1 -2.531-.413l-3.359-1.119a31.013 31.013 0 0 1 -20.105-37.568l18.275-67a8 8 0 0 1 15.437 4.21l-18.275 67.004a15.005 15.005 0 0 0 9.728 18.177l3.358 1.12a8 8 0 0 1 -2.528 15.589z" fill="#a6deff"/><path d="m163.8 295.853 53.759 16.147 58.657-56h69.343l12.181 73.085a82 82 0 0 1 -4.948 44.428l-20.576 50.487h-32l18.67-69.981a30 30 0 0 0 -1.412-19.55l-19.915-46.469-45.841 52.389a34 34 0 0 1 -25.587 11.611h-1.063a33.995 33.995 0 0 1 -14.32-3.163l-62.099-28.837z" fill="#d5515e"/><g fill="#5ebef7"><path d="m281.84 285.69-16.11 15.92a42.494 42.494 0 0 0 -4.16-1.27l-12.92-3.23a7.932 7.932 0 0 1 1.9-2.98l20.04-19.82a8 8 0 1 1 11.25 11.38z"/><path d="m307.99 289.89-9.34 38.49a49.624 49.624 0 0 1 -13.37-12.3.763.763 0 0 1 -.08-.11l7.24-29.86a8 8 0 0 1 15.55 3.78z"/><path d="m341.84 336h-16.31l-9.16-46.45a8 8 0 1 1 15.7-3.1z"/></g><path d="m215.884 42.381 11.8-3.372c16.225-4.636 33.448-2.528 48.549 5a37.985 37.985 0 0 0 16.951 3.991 95.249 95.249 0 0 0 33.26-6.246 28.017 28.017 0 0 1 37.467 22.124l.3.122-.279.08a28.15 28.15 0 0 1 .279 3.92v4l-56 8-8 40-12.828-12.828a28.184 28.184 0 0 0 -25.915-7.525 68.906 68.906 0 0 1 -36.3-1.994l-9.857-3.285a27.619 27.619 0 0 1 -19.032-24.058 27.118 27.118 0 0 1 19.605-27.929z" fill="#915628"/><path d="m364.216 72-6.607 39.644a10 10 0 0 1 -9.864 8.356h-7.529l-8 16-32-16 8-40z" fill="#fdc9a6"/><path d="m188.216 192v17.373a16 16 0 0 1 -4.686 11.313l-1.5 1.5a16 16 0 0 1 -20.914 1.486l-8.79-6.593a16 16 0 0 1 -3.713-21.675l7.6-11.406z" fill="#eeb436"/><path d="m156.216 184 21.494-32.241a71.32 71.32 0 0 1 27.447-24.229 71.318 71.318 0 0 1 31.9-7.53h63.163l32 16 18.5 4.624a36 36 0 0 1 21.223 14.956l24.273 36.42 16-16 24 22.857-19.216 19.903a29.206 29.206 0 0 1 -30.244 7.42 29.2 29.2 0 0 1 -11.414-7.055l-27.126-27.125-2.619 7.858a51.041 51.041 0 0 0 0 32.284 51.041 51.041 0 0 1 2.619 16.141v7.717h-80l-5.575-22.3a51.067 51.067 0 0 1 -1.011-19.6l6.586-46.1-28.71-4.785a38 38 0 0 0 -33.118 10.613l-18.172 18.172z" fill="#faa6b2"/><path d="m412.216 176v-5.639a20 20 0 0 1 11.056-17.889l3.056-1.528a20 20 0 0 1 26.833 8.945l.727 1.455a20 20 0 0 1 -3.5 22.836l-14.172 14.677z" fill="#eeb436"/><path d="m164.216 296-44.909-16-16 56 24 8 24-24z" fill="#eeb436"/><path d="m300.216 424v40h64l-1.688-16-30.813-24z" fill="#eeb436"/><path d="m324.216 264a8 8 0 0 1 -8-8v-4.687a19.187 19.187 0 0 0 -5.657-13.656 8 8 0 0 1 11.315-11.314 35.089 35.089 0 0 1 10.342 24.97v4.687a8 8 0 0 1 -8 8z" fill="#ec9da8"/><path d="m292.216 264a8 8 0 0 1 -8-8v-4.687a19.187 19.187 0 0 0 -5.657-13.656 8 8 0 0 1 11.315-11.314 35.089 35.089 0 0 1 10.342 24.97v4.687a8 8 0 0 1 -8 8z" fill="#ec9da8"/><path d="m332.216 136-22.516 22.519a40 40 0 0 0 -9.663 40.934l.182.547h-40a74.742 74.742 0 0 1 33.281-62.188l14.716-9.812z" fill="#933f35"/><path d="m332.216 136-5.861 3.908a72.007 72.007 0 0 1 -39.939 12.092h-.082a32 32 0 0 0 -27.434 15.536l-14.684 24.464-32-16 17.676-29.459a54.667 54.667 0 0 1 16.552-17.36 54.672 54.672 0 0 1 30.324-9.181h23.448z" fill="#d5515e"/><path d="m316.216 80a8 8 0 0 1 -8-8v-32a8 8 0 0 1 16 0v32a8 8 0 0 1 -8 8z" fill="#d88f9a"/><circle cx="316.216" cy="82.448" fill="#faa6b2" r="16"/><path d="m348.216 256 16 80h-39.1a49.8 49.8 0 0 1 -39.84-19.92 42.529 42.529 0 0 0 -23.709-15.742l-33.618-8.405a4.054 4.054 0 0 1 0-7.866 60.533 60.533 0 0 0 28.124-15.924l12.143-12.143z" fill="#5ebef7"/><path d="m307.99 289.89-9.34 38.49a49.624 49.624 0 0 1 -13.37-12.3.763.763 0 0 1 -.08-.11l7.24-29.86a8 8 0 0 1 15.55 3.78z" fill="#41b2ff"/><path d="m281.84 285.69-16.11 15.92a42.494 42.494 0 0 0 -4.16-1.27l-12.92-3.23a7.932 7.932 0 0 1 1.9-2.98l20.04-19.82a8 8 0 1 1 11.25 11.38z" fill="#41b2ff"/><path d="m341.84 336h-16.31l-9.16-46.45a8 8 0 1 1 15.7-3.1z" fill="#41b2ff"/></g></svg>