<svg height="512" viewBox="0 0 64 64" width="512" xmlns="http://www.w3.org/2000/svg"><g id="flat"><path d="m37 42 8 8v4h-8v-3l-4-4z" fill="#cfdfe8"/><path d="m25 11h12v10h-12z" fill="#ffd782"/><g fill="#394d5c"><path d="m28 14h2v2h-2z"/><path d="m32 14h2v2h-2z"/><path d="m25 11v-1a3 3 0 0 1 3-3h3a2 2 0 0 0 2-2 2 2 0 0 1 2-2h2v8z"/></g><path d="m25 25h12v14h-12z" fill="#cfdfe8"/><path d="m32.09 32 2.83 6.61-1.84.78-.17-.39-6-14h2.18l1.91 4.46 1.91-4.46h2.18z" fill="#aabece"/><path d="m37 47h-10l-7-3 5-5h12z" fill="#aabece"/><path d="m43 57v-3h-4v7h9v-2z" fill="#ffd782"/><path d="m32.97 47.242-1.94-.484 1.257-5.029-3.647 3.04-1.28-1.538 6-5a1 1 0 0 1 1.61 1.011z" fill="#394d5c"/><path d="m20 44-7 7 5 5 9-9z" fill="#cfdfe8"/><path d="m14 52-7 7 2 2h7v-1l-2-2 3-3z" fill="#ffd782"/><path d="m37 25h14v6h-14z" fill="#aabece"/><path d="m13 25h12v6h-12z" fill="#aabece"/><path d="m56 24a2.978 2.978 0 0 0 -2.221 1h-2.779v4h2.779a3 3 0 1 0 2.221-5z" fill="#ffd782"/><path d="m9 25-1.736-5.207a1.159 1.159 0 0 0 -1.1-.793 1.16 1.16 0 0 0 -1.164 1.16v6.84a2 2 0 0 0 2 2h6v-4z" fill="#ffd782"/></g></svg>