<?xml version="1.0" encoding="UTF-8" standalone="no"?>
<svg
   xmlns:dc="http://purl.org/dc/elements/1.1/"
   xmlns:cc="http://creativecommons.org/ns#"
   xmlns:rdf="http://www.w3.org/1999/02/22-rdf-syntax-ns#"
   xmlns:svg="http://www.w3.org/2000/svg"
   xmlns="http://www.w3.org/2000/svg"
   xmlns:sodipodi="http://sodipodi.sourceforge.net/DTD/sodipodi-0.dtd"
   xmlns:inkscape="http://www.inkscape.org/namespaces/inkscape"
   height="512pt"
   viewBox="0 0 512 512"
   width="512pt"
   version="1.1"
   id="svg4"
   sodipodi:docname="plus.svg"
   inkscape:version="1.0.1 (3bc2e813f5, 2020-09-07)">
  <metadata
     id="metadata10">
    <rdf:RDF>
      <cc:Work
         rdf:about="">
        <dc:format>image/svg+xml</dc:format>
        <dc:type
           rdf:resource="http://purl.org/dc/dcmitype/StillImage" />
      </cc:Work>
    </rdf:RDF>
  </metadata>
  <defs
     id="defs8" />
  <sodipodi:namedview
     pagecolor="#ffffff"
     bordercolor="#666666"
     borderopacity="1"
     objecttolerance="10"
     gridtolerance="10"
     guidetolerance="10"
     inkscape:pageopacity="0"
     inkscape:pageshadow="2"
     inkscape:window-width="1920"
     inkscape:window-height="1001"
     id="namedview6"
     showgrid="false"
     inkscape:zoom="1.2158203"
     inkscape:cx="341.33333"
     inkscape:cy="282.66238"
     inkscape:window-x="-9"
     inkscape:window-y="-9"
     inkscape:window-maximized="1"
     inkscape:current-layer="svg4" />
  <path
     d="m256 0c-141.164062 0-256 114.835938-256 256s114.835938 256 256 256 256-114.835938 256-256-114.835938-256-256-256zm112 277.332031h-90.667969v90.667969c0 11.777344-9.554687 21.332031-21.332031 21.332031s-21.332031-9.554687-21.332031-21.332031v-90.667969h-90.667969c-11.777344 0-21.332031-9.554687-21.332031-21.332031s9.554687-21.332031 21.332031-21.332031h90.667969v-90.667969c0-11.777344 9.554687-21.332031 21.332031-21.332031s21.332031 9.554687 21.332031 21.332031v90.667969h90.667969c11.777344 0 21.332031 9.554687 21.332031 21.332031s-9.554687 21.332031-21.332031 21.332031zm0 0"
     id="path2"
     style="fill:#000000;fill-opacity:1" />
  <path
     style="fill:#ffffff;fill-opacity:1;stroke-width:41.1245;stroke-linecap:round;stroke-linejoin:round"
     d="m 333.75494,517.5734 c -8.69131,-2.8407 -15.20343,-8.8324 -18.59734,-17.11115 -1.77629,-4.3329 -1.79058,-4.81235 -2.0234,-67.88642 l -0.23448,-63.52269 -64.33098,-0.22028 -64.33099,-0.22028 -3.76336,-1.85452 c -5.78504,-2.85077 -10.05881,-6.9708 -13.15539,-12.68216 -2.61864,-4.82983 -2.82101,-5.73409 -2.82101,-12.60549 0,-6.42372 0.30127,-8.01588 2.27868,-12.04249 2.77542,-5.65158 8.19595,-10.8077 14.43831,-13.734 l 4.66775,-2.18816 63.53735,-0.22992 63.53735,-0.22991 v -60.27767 c 0,-39.84453 0.30295,-61.93202 0.8937,-65.15803 2.50247,-13.66556 13.92578,-23.3864 27.4822,-23.3864 13.55643,0 24.97974,9.72084 27.48221,23.3864 0.59075,3.22601 0.8937,25.3135 0.8937,65.15803 v 60.27767 l 63.53735,0.22991 63.53735,0.22992 5.12765,2.36837 c 5.95504,2.75053 11.79538,8.53172 14.4605,14.314 1.41469,3.06934 1.78914,5.4263 1.79243,11.28228 0.004,6.87531 -0.19672,7.77291 -2.81685,12.60549 -3.09659,5.71136 -7.37035,9.83139 -13.15539,12.68216 l -3.76336,1.85452 -64.35984,0.2203 -64.35984,0.2203 -0.005,60.23271 c -0.002,34.578 -0.34122,62.28716 -0.79469,65.05618 -1.58856,9.70008 -6.87656,17.02948 -15.26628,21.15972 -6.24918,3.07647 -14.26092,3.91098 -19.88856,2.07161 z"
     id="path835"
     transform="scale(0.74999998)" />
  <path
     style="fill:#ffffff;fill-opacity:1;stroke-width:41.1245;stroke-linecap:round;stroke-linejoin:round"
     d="m 333.75494,517.5734 c -8.69131,-2.8407 -15.20343,-8.8324 -18.59734,-17.11115 -1.77629,-4.3329 -1.79058,-4.81235 -2.0234,-67.88642 l -0.23448,-63.52269 -64.33098,-0.22028 -64.33099,-0.22028 -3.76336,-1.85452 c -5.78504,-2.85077 -10.05881,-6.9708 -13.15539,-12.68216 -2.61864,-4.82983 -2.82101,-5.73409 -2.82101,-12.60549 0,-6.42372 0.30127,-8.01588 2.27868,-12.04249 2.77542,-5.65158 8.19595,-10.8077 14.43831,-13.734 l 4.66775,-2.18816 63.53735,-0.22992 63.53735,-0.22991 v -60.27767 c 0,-39.84453 0.30295,-61.93202 0.8937,-65.15803 2.50247,-13.66556 13.92578,-23.3864 27.4822,-23.3864 13.55643,0 24.97974,9.72084 27.48221,23.3864 0.59075,3.22601 0.8937,25.3135 0.8937,65.15803 v 60.27767 l 63.53735,0.22991 63.53735,0.22992 5.12765,2.36837 c 5.95504,2.75053 11.79538,8.53172 14.4605,14.314 1.41469,3.06934 1.78914,5.4263 1.79243,11.28228 0.004,6.87531 -0.19672,7.77291 -2.81685,12.60549 -3.09659,5.71136 -7.37035,9.83139 -13.15539,12.68216 l -3.76336,1.85452 -64.32651,0.22028 -64.3265,0.22027 -0.23896,63.5227 -0.23896,63.5227 -1.8907,4.67853 c -5.22157,12.92082 -21.16423,20.87802 -33.65235,16.79634 z"
     id="path837"
     transform="scale(0.74999998)" />
</svg>
