<svg height="416pt" viewBox="-37 0 416 416.42667" width="416pt" xmlns="http://www.w3.org/2000/svg"><path d="m268.707031 409.601562h-195.652343c-36.457032 0-66.015626-29.558593-66.015626-66.015624v-205.851563c0-27.054687 21.933594-48.988281 48.988282-48.988281h229.703125c27.054687 0 48.988281 21.933594 48.988281 48.988281v205.851563c0 36.457031-29.554688 66.015624-66.011719 66.015624zm0 0" fill="#94c1ff"/><path d="m268.707031 416.425781h-195.652343c-40.167969 0-72.839844-32.671875-72.839844-72.839843v-205.851563c0-30.773437 25.039062-55.8125 55.8125-55.8125h229.707031c30.773437 0 55.8125 25.039063 55.8125 55.8125v205.855469c0 40.164062-32.671875 72.835937-72.839844 72.835937zm-212.679687-320.851562c-23.246094 0-42.160156 18.914062-42.160156 42.160156v205.855469c0 32.632812 26.550781 59.1875 59.1875 59.1875h195.652343c32.632813 0 59.1875-26.554688 59.1875-59.1875v-205.855469c0-23.246094-18.914062-42.160156-42.164062-42.160156zm0 0" fill="#0e65e5"/><path d="m268.707031 375.464844h-195.652343c-36.457032 0-66.015626-29.554688-66.015626-66.011719v34.132813c0 36.457031 29.558594 66.015624 66.015626 66.015624h195.652343c36.457031 0 66.011719-29.558593 66.011719-66.015624v-34.132813c0 36.457031-29.554688 66.011719-66.011719 66.011719zm0 0" fill="#0e65e5"/><path d="m268.707031 416.425781h-195.652343c-40.167969 0-72.839844-32.671875-72.839844-72.839843v-34.132813c0-3.773437 3.054687-6.828125 6.824218-6.828125 3.773438 0 6.828126 3.054688 6.828126 6.828125 0 32.632813 26.550781 59.1875 59.1875 59.1875h195.652343c32.632813 0 59.1875-26.554687 59.1875-59.1875 0-3.773437 3.054688-6.828125 6.824219-6.828125 3.773438 0 6.828125 3.054688 6.828125 6.828125v34.132813c0 40.167968-32.671875 72.839843-72.839844 72.839843zm-254.113281-63.566406c4.460938 28.246094 28.980469 49.914063 58.460938 49.914063h195.652343c29.480469 0 53.996094-21.667969 58.460938-49.914063-13.289063 17.847656-34.546875 29.433594-58.460938 29.433594h-195.652343c-23.914063 0-45.175782-11.589844-58.460938-29.433594zm0 0" fill="#0e65e5"/><path d="m95.785156 61.441406h150.1875v27.304688h-150.1875zm0 0" fill="#94c1ff"/><path d="m252.800781 95.574219h-163.839843v-40.960938h163.839843zm-150.1875-13.652344h136.535157v-13.65625h-136.535157zm0 0" fill="#0e65e5"/><path d="m283.1875 61.441406h-224.617188c-5.839843 0-10.570312-4.730468-10.570312-10.574218v-33.472657c0-5.835937 4.730469-10.566406 10.570312-10.566406h224.621094c5.835938 0 10.570313 4.730469 10.570313 10.570313v33.472656c0 5.839844-4.734375 10.570312-10.574219 10.570312zm0 0" fill="#5c9eff"/><path d="m283.183594 68.265625h-224.609375c-9.59375 0-17.402344-7.804687-17.402344-17.398437v-33.46875c0-9.59375 7.808594-17.398438 17.402344-17.398438h224.613281c9.597656 0 17.402344 7.804688 17.402344 17.402344v33.464844c-.003906 9.59375-7.808594 17.398437-17.40625 17.398437zm-224.609375-54.613281c-2.066407 0-3.746094 1.679687-3.746094 3.75v33.464844c0 2.066406 1.679687 3.746093 3.746094 3.746093h224.613281c2.066406 0 3.75-1.679687 3.75-3.746093v-33.46875c0-2.066407-1.679688-3.75-3.75-3.75h-224.613281zm0 0" fill="#0e65e5"/><path d="m7.039062 150.1875h327.679688v191.144531h-327.679688zm0 0" fill="#d7e9ff"/><g fill="#0e65e5"><path d="m341.546875 348.160156h-341.332031v-204.800781h341.332031zm-327.679687-13.652344h314.027343v-177.496093h-314.027343zm0 0"/><path d="m31.71875 225.734375c2.113281-.398437 4.441406-.714844 6.980469-.9375 2.539062-.226563 5.066406-.34375 7.585937-.34375 2.617188 0 5.242188.210937 7.882813.640625 2.644531.429688 5.019531 1.28125 7.132812 2.570312 2.113281 1.277344 3.835938 3.0625 5.167969 5.351563 1.335938 2.292969 2 5.273437 2 8.945313 0 3.320312-.574219 6.121093-1.734375 8.414062-1.160156 2.285156-2.691406 4.160156-4.601563 5.617188-1.914062 1.460937-4.089843 2.511718-6.523437 3.167968-2.449219.652344-4.972656.980469-7.589844.980469-.25 0-.652343 0-1.207031 0-.558594 0-1.132812-.007813-1.734375-.035156-.609375-.027344-1.203125-.066407-1.773437-.113281-.582032-.054688-1-.097657-1.246094-.152344v18.1875h-10.339844zm15.394531 7.617187c-1.007812 0-1.960937.042969-2.867187.113282-.910156.078125-1.636719.167968-2.1875.265625v17.128906c.199218.054687.496094.097656.90625.152344.398437.050781.828125.085937 1.28125.113281s.894531.035156 1.320312.035156h.945313c1.351562 0 2.699219-.121094 4.035156-.371094 1.335937-.253906 2.523437-.722656 3.585937-1.402343 1.054688-.671875 1.902344-1.621094 2.527344-2.824219.625-1.207031.9375-2.792969.9375-4.753906 0-1.660156-.300781-3.035156-.902344-4.113282-.605468-1.078124-1.398437-1.945312-2.378906-2.601562-.976562-.65625-2.097656-1.105469-3.355468-1.359375-1.253907-.253906-2.542969-.382813-3.847657-.382813zm0 0"/><path d="m74.878906 225.734375c1.160156-.203125 2.402344-.386719 3.734375-.566406 1.335938-.175781 2.667969-.316407 4-.414063 1.335938-.097656 2.632813-.171875 3.890625-.226562 1.257813-.046875 2.410156-.070313 3.472656-.070313 2.46875 0 4.894532.226563 7.28125.671875 2.386719.453125 4.527344 1.234375 6.414063 2.34375s3.398437 2.628906 4.527344 4.566406c1.132812 1.9375 1.699219 4.363282 1.699219 7.28125 0 4.328126-1.007813 7.851563-3.023438 10.566407-2.011719 2.71875-4.699219 4.609375-8.070312 5.660156l3.699218 2.339844 12.074219 20.144531h-11.929687l-11.996094-20.671875-5.433594-.988281v21.660156h-10.339844zm15.847656 7.925781c-1.054687 0-2.097656.019532-3.132812.070313-1.027344.046875-1.820312.148437-2.371094.300781v15.320312h4.371094c2.867188 0 5.160156-.652343 6.867188-1.960937 1.714843-1.3125 2.570312-3.472656 2.570312-6.492187 0-2.257813-.707031-4.035157-2.113281-5.320313-1.410157-1.277344-3.472657-1.917969-6.191407-1.917969zm0 0"/><path d="m116.160156 251.613281c0-8.800781 1.941406-15.578125 5.8125-20.332031 3.875-4.753906 9.410156-7.132812 16.601563-7.132812 3.769531 0 7.0625.65625 9.882812 1.964843 2.8125 1.308594 5.15625 3.167969 7.015625 5.582031 1.859375 2.410157 3.246094 5.304688 4.152344 8.679688.910156 3.371094 1.359375 7.117188 1.359375 11.238281 0 8.808594-1.953125 15.585938-5.851563 20.339844-3.902343 4.753906-9.421874 7.128906-16.5625 7.128906-3.828124 0-7.148437-.652343-9.960937-1.960937-2.820313-1.308594-5.148437-3.167969-6.980469-5.582032-1.839844-2.417968-3.203125-5.304687-4.113281-8.679687-.90625-3.371094-1.355469-7.117187-1.355469-11.246094zm10.867188 0c0 2.667969.222656 5.121094.675781 7.359375.457031 2.238282 1.140625 4.160156 2.074219 5.773438.929687 1.605468 2.125 2.867187 3.585937 3.769531 1.460938.90625 3.195313 1.359375 5.207031 1.359375 3.671876 0 6.511719-1.433594 8.527344-4.308594 2.011719-2.867187 3.019532-7.519531 3.019532-13.960937 0-2.558594-.21875-4.953125-.644532-7.167969-.429687-2.214844-1.09375-4.144531-2-5.804688-.902344-1.660156-2.085937-2.960937-3.546875-3.886718-1.453125-.933594-3.238281-1.398438-5.351562-1.398438-3.675781 0-6.515625 1.472656-8.527344 4.410156-2.015625 2.953126-3.019531 7.570313-3.019531 13.855469zm0 0"/><path d="m202.941406 234.414062h-15.394531v43.613282h-10.339844v-43.613282h-15.464843v-9.207031h41.199218zm0 0"/><path d="m208.292969 225.207031h31.316406v9.207031h-20.976563v12.300782h19.085938v9.207031h-19.085938v12.898437h21.355469v9.207032h-31.695312zm0 0"/><path d="m248.742188 225.207031h10.332031v52.824219h-10.332031zm0 0"/><path d="m282.320312 250.488281-4.15625-8.300781h-.378906l1.210938 8.300781v27.539063h-9.8125v-53.203125h7.546875l20 28.148437 3.992187 8.070313h.378906l-1.207031-8.070313v-27.769531h9.804688v53.203125h-7.546875zm0 0"/><path d="m95.785156 40.960938c-3.769531 0-6.824218-3.054688-6.824218-6.828126v-27.304687c0-3.773437 3.054687-6.828125 6.824218-6.828125 3.773438 0 6.828125 3.054688 6.828125 6.828125v27.304687c0 3.773438-3.054687 6.828126-6.828125 6.828126zm0 0"/><path d="m143.574219 40.960938c-3.773438 0-6.828125-3.054688-6.828125-6.828126v-27.304687c0-3.773437 3.054687-6.828125 6.828125-6.828125 3.769531 0 6.824219 3.054688 6.824219 6.828125v27.304687c0 3.773438-3.054688 6.828126-6.824219 6.828126zm0 0"/><path d="m245.972656 40.960938c-3.769531 0-6.824218-3.054688-6.824218-6.828126v-27.304687c0-3.773437 3.054687-6.828125 6.824218-6.828125 3.773438 0 6.828125 3.054688 6.828125 6.828125v27.304687c0 3.773438-3.054687 6.828126-6.828125 6.828126zm0 0"/><path d="m198.1875 40.960938c-3.773438 0-6.828125-3.054688-6.828125-6.828126v-27.304687c0-3.773437 3.054687-6.828125 6.828125-6.828125 3.769531 0 6.824219 3.054688 6.824219 6.828125v27.304687c0 3.773438-3.054688 6.828126-6.824219 6.828126zm0 0"/></g><path d="m252.800781 389.121094c-3.773437 0-6.828125-3.054688-6.828125-6.828125v-27.304688c0-3.773437 3.054688-6.828125 6.828125-6.828125 3.769531 0 6.824219 3.054688 6.824219 6.828125v27.304688c0 3.773437-3.054688 6.828125-6.824219 6.828125zm0 0" fill="#fff"/><path d="m266.453125 375.464844h-27.304687c-3.773438 0-6.828126-3.054688-6.828126-6.824219 0-3.773437 3.054688-6.828125 6.828126-6.828125h27.304687c3.773437 0 6.828125 3.054688 6.828125 6.828125 0 3.769531-3.054688 6.824219-6.828125 6.824219zm0 0" fill="#fff"/><path d="m75.308594 122.878906h-34.136719c-3.769531 0-6.824219-3.054687-6.824219-6.824218 0-3.773438 3.054688-6.828126 6.824219-6.828126h34.136719c3.769531 0 6.824218 3.054688 6.824218 6.828126 0 3.769531-3.054687 6.824218-6.824218 6.824218zm0 0" fill="#fff"/></svg>