<svg height="512" viewBox="0 0 512 512" width="512" xmlns="http://www.w3.org/2000/svg"><g id="flat"><path d="m167.205 64v8h80v-8a40 40 0 0 0 -40-40 40 40 0 0 0 -40 40z" fill="#fbb540"/><path d="m136 164 24-12 16 32v24h72v-56l32-24-8-40-96 16h-24l-40 21.714z" fill="#e82f3e"/><path d="m112 125.714-20.477 11.7a30 30 0 0 0 -14.4 19.539l-13.123 59.047-16 16-8 24 32 14.657a1.856 1.856 0 0 0 2.686-1.657l5.314-13h16v-24l16-56 24-12z" fill="#fdc9a6"/><path d="m376 120-16-8-29.54-23.632a30 30 0 0 0 -23.673-6.168l-34.787 5.8 8 40 32-8 24 24 8 16h32l8-32z" fill="#fdc9a6"/><path d="m175.2 72h64a0 0 0 0 1 0 0v32a32 32 0 0 1 -32 32 32 32 0 0 1 -32-32v-32a0 0 0 0 1 0 0z" fill="#fdc9a6"/><path d="m176 208v24a32 32 0 0 0 32 32h104l32 48 32-24-33.435-55.725a50 50 0 0 0 -42.875-24.275z" fill="#0296e5"/><path d="m344 312 16 24 56-24-8-24h-32z" fill="#cbcbcb"/><path d="m208 264 40 40-40 40 32 32 58.189-50.915a28.45 28.45 0 0 0 8.253-12.41 28.442 28.442 0 0 0 -6.871-29.1l-19.571-19.575z" fill="#0276b4"/><path d="m208 344-24 24 40 48 24-8-8-32z" fill="#cbcbcb"/><rect fill="#e82f3e" height="272" rx="48" transform="matrix(.578 .816 -.816 .578 473.148 -136.167)" width="96" x="320.164" y="253.161"/><path d="m398.623 335.597 34.663 48.643 26.121-18.486-34.664-48.643z" fill="#961b20"/><path d="m309.618 459.018-26.181-37.149 26.121-18.485 26.18 37.149z" fill="#961b20"/><g fill="#b0d2fd"><path d="m112 376a8 8 0 0 1 -5.354-13.946l40-36a8 8 0 0 1 10.7 11.892l-40 36a7.973 7.973 0 0 1 -5.346 2.054z"/><path d="m376 228a8 8 0 0 1 -5.354-13.946l40-36a8 8 0 0 1 10.7 11.892l-40 36a7.973 7.973 0 0 1 -5.346 2.054z"/><path d="m408 240a8 8 0 0 1 -5.354-13.946l8-7.2a8 8 0 0 1 10.7 11.892l-8 7.2a7.973 7.973 0 0 1 -5.346 2.054z"/><path d="m432 218.4a8 8 0 0 1 -5.354-13.946l16-14.4a8 8 0 1 1 10.7 11.892l-16 14.4a7.973 7.973 0 0 1 -5.346 2.054z"/><path d="m176 318.4a8 8 0 0 1 -5.354-13.946l16-14.4a8 8 0 0 1 10.7 11.892l-16 14.4a7.973 7.973 0 0 1 -5.346 2.054z"/><path d="m112 328a8 8 0 0 1 -5.126-14.146l48-40a8 8 0 0 1 10.244 12.292l-48 40a7.971 7.971 0 0 1 -5.118 1.854z"/><path d="m48 160a8 8 0 0 1 -8-8 52.739 52.739 0 0 1 23.532-43.969l4.03-2.688a8 8 0 0 1 8.876 13.314l-4.031 2.687a36.768 36.768 0 0 0 -16.407 30.656 8 8 0 0 1 -8 8z"/><path d="m344 64a7.976 7.976 0 0 1 -5.657-2.343 32.127 32.127 0 0 0 -30.354-8.408l-10.049 2.512a8 8 0 1 1 -3.88-15.522l10.048-2.512a48.206 48.206 0 0 1 45.549 12.616 8 8 0 0 1 -5.657 13.657z"/></g><rect fill="#fbb540" height="48" rx="16" transform="matrix(.578 .816 -.816 .578 453.149 -66.57)" width="32" x="274.907" y="380.633"/><rect fill="#fbb540" height="48" rx="16" transform="matrix(.578 .816 -.816 .578 511.406 -74.685)" width="32" x="311.878" y="432.874"/><rect fill="#fbb540" height="48" rx="16" transform="matrix(.578 .816 -.816 .578 434.89 -197.649)" width="32" x="392.45" y="297.448"/><rect fill="#fbb540" height="48" rx="16" transform="matrix(.578 .816 -.816 .578 493.147 -205.764)" width="32" x="429.421" y="349.69"/></g></svg>