<svg height="512" viewBox="0 0 512 512" width="512" xmlns="http://www.w3.org/2000/svg"><g id="Flat"><path d="m136 352 24 40 160-128-48-24z" fill="#2b4266"/><path d="m264 240-30.386-20.257a69.917 69.917 0 0 0 -38.784-11.743 69.918 69.918 0 0 0 -46.773 17.949l-60.057 54.051 24 40 80-72 43.41 32.558a77.217 77.217 0 0 0 46.327 15.442h4.022a77.212 77.212 0 0 0 74.241-56z" fill="#34507b"/><path d="m488 240h-48l-7.38-32-16.62-72h-40v40l-8 88-56.57-13.05-15.4-3.56-32.03-7.39 2.62-15.73 5.38-32.27-2.29-16-2.28-16-3.43-24v-48h149.54a55.4 55.4 0 0 1 33.23 11.08c.49.37.97.74 1.44 1.12a55.32 55.32 0 0 1 19.76 32.97l14.03 74.83z" fill="#f35244"/><path d="m266.62 224.27a498.73 498.73 0 0 0 109.38-59.41v11.14l-8 88-56.57-13.05-15.4-3.56-32.03-7.39z" fill="#e64c3f"/><path d="m488 240h-48l-7.38-32-16.62-72h-3.94a453.261 453.261 0 0 0 36.15-35.8 55.32 55.32 0 0 1 19.76 32.97l14.03 74.83z" fill="#e64c3f"/><path d="m264 88v48h-96l-51.551 15.35-31.72 8.65-16-40 91.271-32z" fill="#f35244"/><path d="m31.482 275.638 123.734 192.476a43.3 43.3 0 0 0 36.425 19.886h3.547a43.3 43.3 0 0 0 33.812-16.251 43.3 43.3 0 0 0 3.106-49.678l-120.473-196.564a47.106 47.106 0 0 0 -45.367-22.2l-.36.04a47.108 47.108 0 0 0 -41.906 46.817 47.1 47.1 0 0 0 7.482 25.474z" fill="#f35244"/><path d="m68.729 120-39.429 19.716a9.58 9.58 0 0 0 -4.285 12.853 9.581 9.581 0 0 0 11.6 4.8l16.114-5.369-2.7 2.7a10.4 10.4 0 0 0 -1.947 12 10.4 10.4 0 0 0 13.947 4.649l22.7-11.349z" fill="#2b4266"/><path d="m116.449 151.35-31.72 8.65-16-40 30-10z" fill="#34507b"/><path d="m488 240h-48l-7.38-32h49.38z" fill="#34507b"/><path d="m440 240-6.481 32.4a10.141 10.141 0 0 0 5.41 11.06 10.142 10.142 0 0 0 13.607-4.535l3.464-6.925v8a16 16 0 0 0 16 16 16 16 0 0 0 16-16v-40z" fill="#2b4266"/><g fill="#d63f30"><path d="m320 160v32a8.466 8.466 0 0 1 -.08 1.13l-8 56a7.293 7.293 0 0 1 -.49 1.82l-15.4-3.56c.01-.17.03-.35.05-.52l7.92-55.44v-31.43a8 8 0 0 1 16 0z"/><path d="m296 160v16h-26.29l-2.28-16z"/><path d="m336 160h40v16h-40z"/></g><path d="m72 272 24-24 16 64 16-16 16 64 24-8 8 104-24-72-16 8-32-64-8 8z" fill="#ffb531"/><path d="m312 160-49.3-35.214a16 16 0 0 1 -6.7-13.02v-39.766a16 16 0 0 1 16-16h72a16 16 0 0 1 16 16v33.373a16 16 0 0 1 -4.686 11.313z" fill="#ffb531"/><path d="m280 144h24a24 24 0 0 0 24-24v-48h-72v48a24 24 0 0 0 24 24z" fill="#fec9a3"/><path d="m328 84v16a12 12 0 0 1 -12 12h-28l-8-8-8 8h-12a11.864 11.864 0 0 1 -4.1-.72 11.993 11.993 0 0 1 -7.9-11.28v-16a12 12 0 0 1 12-12h56a12 12 0 0 1 12 12z" fill="#348fd9"/><path d="m328 84v16a12 12 0 0 1 -12 12h-28l-8-8-8 8h-12a11.864 11.864 0 0 1 -4.1-.72 456.089 456.089 0 0 0 55.97-39.28h4.13a12 12 0 0 1 12 12z" fill="#3086cd"/><path d="m328 64v8h-80v-8a39.99 39.99 0 0 1 68.28-28.28c.59.59 1.16 1.19 1.7 1.82a39.794 39.794 0 0 1 10.02 26.46z" fill="#34507b"/><path d="m279.16 44.42-14.32 7.16-6.95-13.9a39.971 39.971 0 0 1 12.98-9.83z" fill="#2b4266"/><path d="m317.98 37.54-6.78 13.96-14.4-7 8.13-16.74a40.015 40.015 0 0 1 11.35 7.96c.59.59 1.16 1.19 1.7 1.82z" fill="#2b4266"/></g></svg>