<svg height="512" viewBox="0 0 512 512" width="512" xmlns="http://www.w3.org/2000/svg"><g id="flat"><path d="m224 78.627-2.65-6.34-5.35-.287v16z" fill="#e6ccb4"/><path d="m231.678 61.612a16 16 0 0 0 -18.21-13.43l-31.079 4.7a40 40 0 0 0 -26.217 15.81l-.477.647a40 40 0 0 0 -7.358 29.717l1.11 7.348a32 32 0 0 0 36.422 26.86l-4.781-31.641 13.43-18.211 23.731-3.585a16 16 0 0 0 13.429-18.215z" fill="#834b10"/><path d="m224 78.627-29.482 1.373-13.43 21.619-7.91 1.195a16 16 0 0 0 -13.43 18.211 16 16 0 0 0 18.211 13.43l4.91 1.8 34.641-7.781 5.519-17.016 15.821-2.39z" fill="#e6ccb4"/><path d="m84.862 375.065 201.472-30.443a366.042 366.042 0 0 1 72.034-3.7l36.1 1.713c10.919.519 13.208 15.671 2.93 19.392l-33.977 12.3a365.984 365.984 0 0 1 -69.911 17.752l-201.477 30.447a24 24 0 0 1 -27.316-20.145 24 24 0 0 1 20.145-27.316z" fill="#fbb540"/><path d="m244.872 256.019a28 28 0 0 0 -20.265-22.819l-64.607-16.057 18.415-26.121 2.433-.368a52 52 0 0 0 34.082-20.554l7.361-9.981-4.781-31.641-39.551 5.976-41.959 9.546-.722 29.267-20.145 10.733 3.586 40.314 17.281 23.686 21.531 16 56.567 2.538 8.367 55.372 31.64-4.781z" fill="#7a4771"/><path d="m151.555 227.444 24.511 43.949a28 28 0 0 1 -1.919 30.257l-22.874 31.017-31.641 4.781 24.468-57.448-15.87-12.719a30 30 0 0 1 -11.1-26.256l1.592-16.711 31.641-4.78z" fill="#bb5a8f"/><path d="m171.42 305.35-20.15 27.32-31.64 4.78 11.65-27.35z" fill="#bb5a8f"/><path d="m217.51 128.479 40.8 13.236a26 26 0 0 1 15.137 12.917l18.1 35.477-23.73 3.586-19.406-21.34-26.12-12.235z" fill="#bb5a8f"/><path d="m271.404 217.425 9.105 6.715 22.535-11.495-11.496-22.536-23.73 3.586z" fill="#e6ccb4"/><path d="m226.05 345.64 9.106 6.715 39.551-5.976-2.391-15.82-18.211-13.43-31.64 4.781z" fill="#7a4771"/><path d="m114.112 354.463 2.391 15.821 55.371-8.367-2.39-15.82-18.211-13.43-31.641 4.781z" fill="#bb5a8f"/><path d="m171.42 305.35-20.15 27.32-31.64 4.78 11.65-27.35z" fill="#e6ccb4"/><path d="m250.52 293.398-31.641 4.781 3.586 23.731 31.64-4.781z" fill="#e6ccb4"/><path d="m24 471.935a45 45 0 0 1 38.209-44.485l267.13-40.781 40.455-6.112a36.426 36.426 0 0 0 23.871-14.4l10.391-14.09a27.552 27.552 0 0 0 -11.688-41.832 20.062 20.062 0 0 1 -12.2-15.555 20.062 20.062 0 0 1 23.8-22.663l5.557 1.12a84.964 84.964 0 0 1 67.87 75.983 113.144 113.144 0 0 1 -112.728 122.88h-340.667z" fill="#0bafea"/><path d="m396.68 362.11-68.68 109.89h-104l143.03-91.02 2.76-.42a36.4 36.4 0 0 0 23.87-14.4l2.96-4.01z" fill="#0bafea"/><path d="m296 392-208 80h-64v-.07a44.989 44.989 0 0 1 38.21-44.48l149.66-22.85z" fill="#0bafea"/><path d="m396.68 362.11-68.68 109.89h-104l143.03-91.02 2.76-.42a36.4 36.4 0 0 0 23.87-14.4l2.96-4.01z" fill="#0a9acd"/><path d="m296 392-208 80h-64v-.07a44.989 44.989 0 0 1 38.21-44.48l149.66-22.85z" fill="#0a9acd"/><g fill="#8feaff"><path d="m408 432a8 8 0 0 1 -5.657-13.657l4.964-4.963a8 8 0 0 1 11.313 11.313l-4.963 4.964a7.976 7.976 0 0 1 -5.657 2.343z"/><path d="m430.354 408a8 8 0 0 1 -6.662-12.419 49.794 49.794 0 0 0 8.308-27.581 8 8 0 0 1 16 0 65.742 65.742 0 0 1 -10.969 36.418 7.991 7.991 0 0 1 -6.677 3.582z"/><path d="m487.591 296.322a7.99 7.99 0 0 1 -6.663-3.564l-3.894-5.84a8 8 0 1 1 13.313-8.875l3.893 5.84a8 8 0 0 1 -6.649 12.439z"/><path d="m468.436 269.687a7.975 7.975 0 0 1 -5.641-2.327 49.788 49.788 0 0 0 -25.417-13.555 8 8 0 0 1 3.138-15.69 65.759 65.759 0 0 1 33.56 17.9 8 8 0 0 1 -5.64 13.674z"/><path d="m320 288h-8a8 8 0 0 1 0-16h8a8 8 0 0 1 0 16z"/><path d="m352 312h-16a8 8 0 0 1 0-16h16a8 8 0 0 1 0 16z"/><path d="m376 248h-16a8 8 0 0 1 0-16h16a8 8 0 0 1 0 16z"/><path d="m392 216h-8a8 8 0 0 1 0-16h8a8 8 0 0 1 0 16z"/></g><path d="m162.138 136.846-31.312 4.731a26 26 0 0 0 -14.219 7.046l-36.607 42.117 20.508 20.144 34.77-37.617 31.641-4.78a16 16 0 0 0 13.43-18.211 16 16 0 0 0 -18.211-13.43z" fill="#bb5a8f"/><path d="m80 192-21.433 9.04 3.585 23.731 17.016 5.52 21.34-19.407z" fill="#e6ccb4"/></g></svg>