<?xml version="1.0" encoding="iso-8859-1"?>
<!-- Generator: Adobe Illustrator 19.0.0, SVG Export Plug-In . SVG Version: 6.00 Build 0)  -->
<svg version="1.1" id="Capa_1" xmlns="http://www.w3.org/2000/svg" xmlns:xlink="http://www.w3.org/1999/xlink" x="0px" y="0px"
	 viewBox="0 0 511.995 511.995" style="enable-background:new 0 0 511.995 511.995;" xml:space="preserve">
<g>
	<path style="fill:#FFB69E;" d="M12.896,507.301c-11.992-8.298-14.987-24.746-6.689-36.738l56.463-81.601l16.746-95.822
		c2.51-14.366,16.194-23.976,30.557-21.465c14.365,2.51,23.975,16.191,21.465,30.556l-17.745,101.534
		c-0.658,3.763-2.124,7.338-4.297,10.479l-59.762,86.369C41.335,512.605,24.886,515.599,12.896,507.301z"/>
	<path style="fill:#FFB69E;" d="M205.345,511.995c-16.01,0-28.206-14.019-26.231-29.706l12.242-97.24l-43.826-74.047
		c-7.428-12.55-3.276-28.744,9.274-36.172c12.549-7.428,28.744-3.276,36.172,9.274l48.43,81.826
		c2.984,5.042,4.207,10.934,3.475,16.747L231.51,488.886C229.829,502.235,218.457,511.995,205.345,511.995z"/>
</g>
<g>
	<path style="fill:#3C5A73;" d="M131.437,302.231c2.51-14.365-7.1-28.046-21.465-30.556c-14.363-2.511-28.047,7.099-30.557,21.465
		l-14.021,80.235l51.807,10.316C118.889,374.034,129.269,314.638,131.437,302.231z"/>
	<path style="fill:#3C5A73;" d="M187.196,378.02l49.732-19.657l-43.951-74.259c-7.428-12.55-23.623-16.702-36.172-9.274
		c-12.55,7.428-16.702,23.622-9.274,36.172C159.054,330.473,175.693,358.586,187.196,378.02z"/>
</g>
<path style="fill:#FFB69E;" d="M369.253,183.637c-1.335-10.856-11.216-18.573-22.072-17.24l-73.1,8.986l-43.478-48.743
	c-6.336-7.103-15.039-11.659-24.488-12.815c-26.218-3.209-64.542-7.894-92.424-11.306c-11.191-1.37-22.45,1.9-31.17,9.049
	l-46.297,37.957c-5.034,4.143-7.706,10.498-7.146,16.994l9.495,110.036c0.942,10.922,10.561,18.968,21.433,18.028
	c10.896-0.941,18.968-10.536,18.028-21.433l-8.599-99.66l26.873-22.116c-4.069,32.664-15.471,124.183-19.584,157.2l70.807,2.427
	l49.348-20.305l15.575-125.02l38.931,43.789c4.307,4.844,10.731,7.293,17.216,6.497l83.413-10.253
	C362.869,204.374,370.587,194.493,369.253,183.637z"/>
<path style="fill:#82BE50;" d="M230.603,126.64c-6.336-7.103-15.039-11.658-24.488-12.815c-7.363-0.901-15.68-1.918-24.453-2.991
	c-1.143,10.926-11.596,19.748-22.479,19.748c-14.028,0-23.7-12.808-22.494-25.249c-8.096-0.99-15.888-1.943-23-2.814
	c-11.191-1.37-22.451,1.901-31.17,9.049L46.023,141.49l27.868,28.331l22.414-18.447c-4.069,32.664-15.471,124.183-19.584,157.2
	l70.807,2.427l49.348-20.305l15.575-125.02l17.012,19.134l27.559-28.551L230.603,126.64z"/>
<circle style="fill:#FFB69E;" cx="168.428" cy="45.788" r="45.788"/>
<circle style="fill:#FFF5AA;" cx="434.098" cy="196.305" r="18.262"/>
<path style="fill:#FFA50A;" d="M412.301,116.433c9.637-26.661-1.138-54.992-24.066-63.28s-49.328,6.606-58.965,33.267
	c-6.79,18.785-3.44,38.392,7.151,51.238c3.719,4.51,4.79,10.673,2.803,16.17l-18.065,49.978c-1.114,3.082,0.481,6.484,3.563,7.598
	l11.161,4.035c3.082,1.114,6.484-0.481,7.598-3.563l18.065-49.978c1.99-5.505,6.744-9.549,12.495-10.641
	C390.398,148.151,405.511,135.218,412.301,116.433z"/>
<g>
	<path style="fill:#A03C19;" d="M339.224,153.828l-18.065,49.978c-1.114,3.082,0.481,6.484,3.563,7.598l11.161,4.035
		c3.082,1.114,6.484-0.481,7.598-3.564l18.065-49.978L339.224,153.828z"/>
	<path style="fill:#A03C19;" d="M492.681,309.642H295.616c-9.832,0-17.802-7.97-17.802-17.802l0,0
		c0-9.832,7.97-17.802,17.802-17.802H492.68c9.832,0,17.802,7.97,17.802,17.802l0,0
		C510.483,301.672,502.513,309.642,492.681,309.642z"/>
</g>
<g>
</g>
<g>
</g>
<g>
</g>
<g>
</g>
<g>
</g>
<g>
</g>
<g>
</g>
<g>
</g>
<g>
</g>
<g>
</g>
<g>
</g>
<g>
</g>
<g>
</g>
<g>
</g>
<g>
</g>
</svg>
