<?xml version="1.0" encoding="UTF-8" standalone="no"?>
<svg
   xmlns:dc="http://purl.org/dc/elements/1.1/"
   xmlns:cc="http://creativecommons.org/ns#"
   xmlns:rdf="http://www.w3.org/1999/02/22-rdf-syntax-ns#"
   xmlns:svg="http://www.w3.org/2000/svg"
   xmlns="http://www.w3.org/2000/svg"
   xmlns:sodipodi="http://sodipodi.sourceforge.net/DTD/sodipodi-0.dtd"
   xmlns:inkscape="http://www.inkscape.org/namespaces/inkscape"
   version="1.1"
   id="Capa_1"
   x="0px"
   y="0px"
   width="612px"
   height="612px"
   viewBox="0 0 612 612"
   style="enable-background:new 0 0 612 612;"
   xml:space="preserve"
   sodipodi:docname="up-arrow.svg"
   inkscape:version="1.0.1 (3bc2e813f5, 2020-09-07)"><metadata
   id="metadata44"><rdf:RDF><cc:Work
       rdf:about=""><dc:format>image/svg+xml</dc:format><dc:type
         rdf:resource="http://purl.org/dc/dcmitype/StillImage" /><dc:title></dc:title></cc:Work></rdf:RDF></metadata><defs
   id="defs42" /><sodipodi:namedview
   pagecolor="#ffffff"
   bordercolor="#666666"
   borderopacity="1"
   objecttolerance="10"
   gridtolerance="10"
   guidetolerance="10"
   inkscape:pageopacity="0"
   inkscape:pageshadow="2"
   inkscape:window-width="1920"
   inkscape:window-height="1001"
   id="namedview40"
   showgrid="false"
   inkscape:zoom="1.3562092"
   inkscape:cx="306"
   inkscape:cy="197.98108"
   inkscape:window-x="-9"
   inkscape:window-y="-9"
   inkscape:window-maximized="1"
   inkscape:current-layer="Capa_1"
   inkscape:document-rotation="0" />
<g
   id="g7"
   transform="rotate(-179.8921,306,306)">
	<g
   id="_x33__24_">
		<g
   id="g4">
			<path
   d="M 306,0 C 136.992,0 0,136.992 0,306 0,475.008 136.992,612 306,612 475.008,612 612,474.988 612,306 612,137.012 475.008,0 306,0 Z m 163.231,246.311 -146.439,146.44 c -4.59,4.59 -10.863,6.005 -16.811,4.973 -5.929,1.052 -12.221,-0.383 -16.811,-4.973 L 142.73,246.311 c -7.478,-7.478 -7.478,-19.565 0,-27.043 7.478,-7.478 19.584,-7.478 27.042,0 L 306,355.457 442.189,219.268 c 7.478,-7.478 19.584,-7.478 27.042,0 7.479,7.459 7.479,19.565 0,27.043 z"
   id="path2" />
		</g>
	</g>
</g>
<path
   style="fill:#ffffff;stroke-width:36.8675;stroke-linecap:round;stroke-linejoin:round"
   d="m 317.59822,216.11317 c 2.57975,1.16463 19.92177,18.16544 78.16913,76.63115 83.28139,83.59358 79.21482,79.02804 78.38405,88.00197 -0.49396,5.33582 -2.61708,9.47974 -6.59462,12.8714 -2.99396,2.55297 -8.69347,4.83902 -12.04869,4.8327 -0.86665,-0.002 -3.37694,-0.531 -5.57843,-1.17637 -3.8981,-1.14276 -5.82053,-2.9963 -73.55999,-70.9242 -38.2565,-38.36294 -69.88098,-69.7514 -70.27663,-69.75214 -0.39565,-7.5e-4 -32.13814,31.27102 -70.53887,69.49281 l -69.81952,69.49417 -4.42647,1.26147 c -15.62752,4.45361 -28.97219,-11.80464 -21.67431,-26.40648 2.43629,-4.87462 150.63188,-152.36351 155.10654,-154.36688 4.78576,-2.14267 18.07415,-2.11918 22.85781,0.04 z"
   id="path869" /></svg>
