<?xml version="1.0" encoding="UTF-8" standalone="no"?>
<svg
   xmlns:dc="http://purl.org/dc/elements/1.1/"
   xmlns:cc="http://creativecommons.org/ns#"
   xmlns:rdf="http://www.w3.org/1999/02/22-rdf-syntax-ns#"
   xmlns:svg="http://www.w3.org/2000/svg"
   xmlns="http://www.w3.org/2000/svg"
   xmlns:sodipodi="http://sodipodi.sourceforge.net/DTD/sodipodi-0.dtd"
   xmlns:inkscape="http://www.inkscape.org/namespaces/inkscape"
   version="1.1"
   id="Capa_1"
   x="0px"
   y="0px"
   viewBox="0 0 328.8 328.8"
   style="enable-background:new 0 0 328.8 328.8;"
   xml:space="preserve"
   sodipodi:docname="water-cup-full.svg"
   inkscape:version="1.0.1 (3bc2e813f5, 2020-09-07)"><metadata
   id="metadata51"><rdf:RDF><cc:Work
       rdf:about=""><dc:format>image/svg+xml</dc:format><dc:type
         rdf:resource="http://purl.org/dc/dcmitype/StillImage" /></cc:Work></rdf:RDF></metadata><defs
   id="defs49" /><sodipodi:namedview
   pagecolor="#ffffff"
   bordercolor="#666666"
   borderopacity="1"
   objecttolerance="10"
   gridtolerance="10"
   guidetolerance="10"
   inkscape:pageopacity="0"
   inkscape:pageshadow="2"
   inkscape:window-width="1920"
   inkscape:window-height="1001"
   id="namedview47"
   showgrid="false"
   inkscape:zoom="2.524331"
   inkscape:cx="164.39999"
   inkscape:cy="126.63421"
   inkscape:window-x="-9"
   inkscape:window-y="-9"
   inkscape:window-maximized="1"
   inkscape:current-layer="Capa_1"
   inkscape:document-rotation="0" />


<path
   style="fill:#50C1E9;"
   d="M226.2,266.8l10.4-155.2c-25.2,8.8-50.8,8-72.8,0.4c-30.8-11.6-72,4.4-72,4.4L103,266.8H226.2z"
   id="path6" />
<path
   style="fill:#87D3E8;"
   d="M151,108.4c-28.4-4-59.2,7.6-59.2,7.6L103,266.4h26l-11.6-150C117.4,116.4,132.2,110.8,151,108.4z"
   id="path8" />
<g
   id="g14">
	<path
   style="fill:#56596A;"
   d="M271,0H57.4c-1.6,0-3.2,0.8-4.4,2s-1.6,2.8-1.6,4.8l24,293.2c1.2,16,15.2,28.8,31.2,28.8h115.6   c16,0,30-12.8,31.2-28.8l24-293.2c0-1.6-0.4-3.2-1.6-4.8C274.6,0.8,273,0,271,0z M222.2,316.4h-116c-9.2,0-18-7.6-18.8-17.2H241   C239.8,308.8,231.4,316.4,222.2,316.4z M242.2,287.2h-156L63.8,12.4h200.8L242.2,287.2z"
   id="path10" />
	<path
   style="fill:#56596A;"
   d="M97,267.2c0.4,3.2,2.8,5.6,6,5.6h123.2c3.2,0,6-2.4,6-5.6L242.6,112c0-2-0.8-4-2.4-5.2   s-3.6-1.6-5.6-0.8c-22.8,8-47.2,8-68.8,0.4c-8-2.8-17.2-4.4-27.6-4.4c-25.2,0-48,8.8-48.8,9.2c-2.4,0.8-4,3.6-4,6L97,267.2z    M138.6,114c8.8,0,16.8,1.2,23.6,3.6c21.2,7.6,45.2,8.4,68,2.4l-9.6,140.8h-112l-10.8-140C105.4,118.4,121.8,114,138.6,114z"
   id="path12" />
</g>
<path
   style="fill:#ffffff;fill-opacity:1;stroke-width:19.8072;stroke-linecap:round;stroke-linejoin:round"
   d="m 101.13479,315.35848 c -4.309736,-1.37799 -7.989363,-4.11994 -10.397443,-7.74786 -1.442453,-2.17315 -2.991326,-6.00222 -2.991326,-7.39506 0,-0.70708 2.429621,-0.73027 76.499989,-0.73027 H 240.746 l -0.27435,1.48554 c -0.76343,4.13393 -4.80477,9.73548 -8.93682,12.38701 -1.08379,0.69546 -3.05567,1.60222 -4.38196,2.015 -2.32377,0.72324 -4.61684,0.74975 -63.08528,0.72922 -57.58977,-0.0202 -60.78868,-0.058 -62.9328,-0.74358 z"
   id="path876" /><path
   style="fill:#ffffff;fill-opacity:0.7;stroke-width:19.8072;stroke-linecap:round;stroke-linejoin:round"
   d="m 100.72835,315.19454 c -6.355038,-2.16581 -11.886645,-8.22395 -12.816016,-14.03591 l -0.267578,-1.67335 h 76.550614 76.55062 l -0.27434,1.48555 c -0.79217,4.28951 -5.31874,10.38201 -9.45955,12.732 -4.54155,2.57741 -0.21052,2.42156 -66.98112,2.4103 l -60.63725,-0.0102 z"
   id="path841" /><path
   style="fill:#ffffff;fill-opacity:1;stroke-width:19.8072;stroke-linecap:round;stroke-linejoin:round"
   d="m 100.72835,315.19454 c -6.394049,-2.17911 -11.881642,-8.19266 -12.817654,-14.04616 l -0.26594,-1.6631 h 76.550614 76.55062 l -0.27434,1.48555 c -0.79217,4.28951 -5.31874,10.38201 -9.45955,12.732 -4.54155,2.57741 -0.21052,2.42156 -66.98112,2.4103 l -60.63725,-0.0102 z"
   id="path843" /><path
   style="fill:#ffffff;fill-opacity:1;stroke-width:19.8072;stroke-linecap:round;stroke-linejoin:round"
   d="m 103.98794,315.9933 c -2.64144,-0.36393 -5.857093,-1.6134 -8.067015,-3.13452 -3.947816,-2.71733 -7.378359,-7.77906 -8.012208,-11.82193 l -0.263961,-1.68361 h 76.558364 76.55836 l -0.23996,1.48554 c -0.34029,2.10673 -2.72452,6.70531 -4.59961,8.8715 -2.02549,2.33994 -5.3985,4.5826 -8.49366,5.64729 -2.4117,0.8296 -2.57637,0.83195 -61.83983,0.88386 -32.68192,0.0286 -60.40214,-0.083 -61.60048,-0.24813 z"
   id="path853" /><path
   style="fill:#ffffff;fill-opacity:0.7;stroke-width:19.8072;stroke-linecap:round;stroke-linejoin:round"
   d="M 86.384332,286.57857 C 86.302301,286.30567 81.308363,225.29401 75.286691,150.9971 69.265018,76.700185 64.236763,15.154176 64.11279,14.228188 L 63.887384,12.544573 H 164.1597 264.43202 l -0.24434,2.673976 c -0.13439,1.470687 -5.17514,63.194962 -11.20166,137.165051 l -10.95733,134.49108 -77.7476,0.10003 c -62.00676,0.0798 -77.777808,-4e-4 -77.896758,-0.39614 z M 229.58481,271.91888 c 2.81352,-1.89604 2.22058,4.15258 7.88599,-80.44562 2.84226,-42.4417 5.16774,-78.14542 5.16774,-79.3416 0,-2.48303 -0.65034,-3.98919 -2.33432,-5.40617 -2.00586,-1.68781 -3.31659,-1.67328 -8.99446,0.0997 -10.82348,3.37981 -20.5467,4.87069 -31.85098,4.88376 -11.94474,0.0138 -19.46838,-1.18892 -32.79448,-5.24259 -12.38961,-3.7688 -17.16592,-4.51445 -28.806,-4.49708 -8.55091,0.0128 -13.14034,0.41384 -21.78795,1.90404 -10.40477,1.79301 -25.186983,5.93394 -27.97195,7.83577 -1.762285,1.20344 -2.72925,3.21263 -2.72925,5.67091 0,1.12656 2.591312,35.53449 5.758472,76.46208 6.290957,81.29483 5.736797,76.20254 8.496738,78.07813 l 1.31159,0.89132 h 63.66211 63.66211 z"
   id="path861" /></svg>
