<?xml version="1.0" encoding="UTF-8" standalone="no"?>
<svg
   xmlns:dc="http://purl.org/dc/elements/1.1/"
   xmlns:cc="http://creativecommons.org/ns#"
   xmlns:rdf="http://www.w3.org/1999/02/22-rdf-syntax-ns#"
   xmlns:svg="http://www.w3.org/2000/svg"
   xmlns="http://www.w3.org/2000/svg"
   xmlns:sodipodi="http://sodipodi.sourceforge.net/DTD/sodipodi-0.dtd"
   xmlns:inkscape="http://www.inkscape.org/namespaces/inkscape"
   version="1.1"
   id="Capa_1"
   x="0px"
   y="0px"
   viewBox="0 0 378 378"
   style="enable-background:new 0 0 378 378;"
   xml:space="preserve"
   sodipodi:docname="water-cup-empty.svg"
   inkscape:version="1.0.1 (3bc2e813f5, 2020-09-07)"><metadata
   id="metadata49"><rdf:RDF><cc:Work
       rdf:about=""><dc:format>image/svg+xml</dc:format><dc:type
         rdf:resource="http://purl.org/dc/dcmitype/StillImage" /></cc:Work></rdf:RDF></metadata><defs
   id="defs47" /><sodipodi:namedview
   pagecolor="#ffffff"
   bordercolor="#666666"
   borderopacity="1"
   objecttolerance="10"
   gridtolerance="10"
   guidetolerance="10"
   inkscape:pageopacity="0"
   inkscape:pageshadow="2"
   inkscape:window-width="1920"
   inkscape:window-height="1001"
   id="namedview45"
   showgrid="false"
   inkscape:zoom="2.1957672"
   inkscape:cx="189"
   inkscape:cy="258.83133"
   inkscape:window-x="-9"
   inkscape:window-y="-9"
   inkscape:window-maximized="1"
   inkscape:current-layer="Capa_1"
   inkscape:document-rotation="0" />
<g
   id="g6">
	<g
   id="g4"
   style="fill:#000000;fill-opacity:1">
		<path
   d="M316.8,2.4c-0.4-1.6-2-2.4-4-2.4H66.4c-2,0-4,0.8-5.2,2.4c-1.2,1.6-2,3.2-2,5.2l27.6,337.6c1.6,18,17.6,32.8,35.6,32.8    h133.2c18.4,0,34.4-14.8,35.6-32.8L318.8,7.6C318.8,5.6,318.4,3.6,316.8,2.4z M256.4,364.4H122.8c-10.8,0-20.4-8.8-21.6-19.6H278    C276.8,355.6,266.8,364.4,256.4,364.4z M279.2,330.8H100L74,14h230.8L279.2,330.8z"
   id="path2"
   style="fill:#000000;fill-opacity:1" />
	</g>
</g>

<path
   style="fill:#ffffff;fill-opacity:0.7;stroke-width:22.7711;stroke-linecap:round;stroke-linejoin:round"
   d="M 100.21891,330.06687 C 100.01983,329.41174 74.430637,16.693762 74.449189,15.142776 l 0.01226,-1.024699 H 189.45542 c 103.03771,0 114.99398,0.07263 114.99398,0.6985 0,1.086413 -24.9931,310.732523 -25.2984,313.428603 l -0.27076,2.39097 h -89.24417 c -70.99947,0 -89.27954,-0.11638 -89.41716,-0.56928 z"
   id="path837" /><path
   style="fill:#ffffff;fill-opacity:1;stroke-width:22.7711;stroke-linecap:round;stroke-linejoin:round"
   d="m 116.6374,363.08044 c -7.28659,-2.50609 -13.18259,-8.98297 -14.78248,-16.23887 l -0.42677,-1.93554 h 88.13527 88.13527 l -0.27586,1.70783 c -0.79931,4.94845 -5.85713,11.75548 -10.83401,14.58088 -5.33565,3.02908 -0.17339,2.84057 -77.32991,2.82374 -69.0336,-0.0151 -69.97314,-0.0272 -72.62151,-0.93804 z"
   id="path841" /></svg>
