<?xml version="1.0" encoding="UTF-8" standalone="no"?>
<svg
   xmlns:dc="http://purl.org/dc/elements/1.1/"
   xmlns:cc="http://creativecommons.org/ns#"
   xmlns:rdf="http://www.w3.org/1999/02/22-rdf-syntax-ns#"
   xmlns:svg="http://www.w3.org/2000/svg"
   xmlns="http://www.w3.org/2000/svg"
   xmlns:sodipodi="http://sodipodi.sourceforge.net/DTD/sodipodi-0.dtd"
   xmlns:inkscape="http://www.inkscape.org/namespaces/inkscape"
   version="1.1"
   id="Capa_1"
   x="0px"
   y="0px"
   viewBox="0 0 378 378"
   style="enable-background:new 0 0 378 378;"
   xml:space="preserve"
   sodipodi:docname="water-cup-empty.svg"
   inkscape:version="1.0.1 (3bc2e813f5, 2020-09-07)"><metadata
   id="metadata49"><rdf:RDF><cc:Work
       rdf:about=""><dc:format>image/svg+xml</dc:format><dc:type
         rdf:resource="http://purl.org/dc/dcmitype/StillImage" /></cc:Work></rdf:RDF></metadata><defs
   id="defs47" /><sodipodi:namedview
   pagecolor="#ffffff"
   bordercolor="#666666"
   borderopacity="1"
   objecttolerance="10"
   gridtolerance="10"
   guidetolerance="10"
   inkscape:pageopacity="0"
   inkscape:pageshadow="2"
   inkscape:window-width="1920"
   inkscape:window-height="1001"
   id="namedview45"
   showgrid="false"
   inkscape:zoom="2.1957672"
   inkscape:cx="189"
   inkscape:cy="189"
   inkscape:window-x="-9"
   inkscape:window-y="-9"
   inkscape:window-maximized="1"
   inkscape:current-layer="g12" />
<g
   id="g6">
	<g
   id="g4"
   style="fill:#000000;fill-opacity:1">
		<path
   d="M316.8,2.4c-0.4-1.6-2-2.4-4-2.4H66.4c-2,0-4,0.8-5.2,2.4c-1.2,1.6-2,3.2-2,5.2l27.6,337.6c1.6,18,17.6,32.8,35.6,32.8    h133.2c18.4,0,34.4-14.8,35.6-32.8L318.8,7.6C318.8,5.6,318.4,3.6,316.8,2.4z M256.4,364.4H122.8c-10.8,0-20.4-8.8-21.6-19.6H278    C276.8,355.6,266.8,364.4,256.4,364.4z M279.2,330.8H100L74,14h230.8L279.2,330.8z"
   id="path2"
   style="fill:#000000;fill-opacity:1" />
	</g>
</g>
<g
   id="g12">
	<g
   id="g10">
		<path
   d="M276.8,122.8c-2-1.6-4.4-2-6.4-1.2c-26.4,9.2-54.4,9.2-79.2,0.4c-9.2-3.2-20-4.8-31.6-4.8c-28.8,0-55.2,10-56.4,10.4    c-2.8,1.2-4.8,4-4.4,7.2l13.6,172.8c0.4,3.6,3.2,6.4,6.8,6.4h141.6c3.6,0,6.8-2.8,6.8-6.4l12-178.8    C279.6,126.4,278.8,124,276.8,122.8z M254.4,299.6H125.6l-12-160.8c8.4-2.8,27.2-8,46.4-8c10,0,19.2,1.6,26.8,4    c24.4,8.8,52,9.6,78.4,2.8L254.4,299.6z"
   id="path8" />
	</g>
</g>
<g
   id="g14">
</g>
<g
   id="g16">
</g>
<g
   id="g18">
</g>
<g
   id="g20">
</g>
<g
   id="g22">
</g>
<g
   id="g24">
</g>
<g
   id="g26">
</g>
<g
   id="g28">
</g>
<g
   id="g30">
</g>
<g
   id="g32">
</g>
<g
   id="g34">
</g>
<g
   id="g36">
</g>
<g
   id="g38">
</g>
<g
   id="g40">
</g>
<g
   id="g42">
</g>
</svg>
