<?xml version="1.0"?>
<svg xmlns="http://www.w3.org/2000/svg" viewBox="0 0 128 128" width="512" height="512"><g id="Circle_Grid" data-name="Circle Grid"><circle cx="64" cy="64" r="64" fill="#ef5261"/></g><g id="icon"><path d="M34.562,70.215,35.95,93.309v.284a4.338,4.338,0,0,1-4.56,4.317,4.572,4.572,0,0,1-4.131-4.9l1.151-22.8.278-5.633a12.62,12.62,0,0,0-1.335-6.3l-3.678-7.3a6.31,6.31,0,0,1-.658-3.3l1.292-17.6H25.7V46.259h1.83l.726-16.174h1.924l.536,16.174h1.83l.631-16.174H35l.852,16.174h1.483V30.085h1.7L40.16,47.65A6.31,6.31,0,0,1,39.442,51l-3.768,7.136a12.62,12.62,0,0,0-1.438,6.647Z" fill="#eeefee"/><path d="M34.562,70.215,35.95,93.309v.284a4.357,4.357,0,1,1-8.708-.253L28.41,70.215Z" fill="#575b6d"/><path d="M105,31.315V94.886a3,3,0,0,1-3,3.029,2.539,2.539,0,0,1-1.294-.315,2.989,2.989,0,0,1-1.7-2.714V69.4l-2.429-1.8-1.42-1.041V53.621a38.371,38.371,0,0,1,7.7-23.031,1.194,1.194,0,0,1,2.145.726Z" fill="#dbd8dd"/><path d="M99.006,69.773V69.4l-2.429-1.8V55.04a38.373,38.373,0,0,1,7.7-23.031A.919.919,0,0,1,105,31.6V94.886a3,3,0,0,1-3,3.029,2.539,2.539,0,0,1-1.294-.315,2.885,2.885,0,0,1-.284-1.294" fill="#eeefee"/><path d="M105,70.215V94.886a3,3,0,1,1-5.994,0V70.215Z" fill="#575b6d"/><circle cx="65.148" cy="69.343" r="28.572" fill="#eeefee"/><path d="M65.147,91.586A22.242,22.242,0,1,1,87.389,69.343,22.267,22.267,0,0,1,65.147,91.586Zm0-42.676A20.434,20.434,0,1,0,85.581,69.343,20.458,20.458,0,0,0,65.147,48.909Z" fill="#dbd8dd"/><path d="M74.171,66.252c0,3.136-2.13,6.8-5.344,9.791a23.421,23.421,0,0,1-4.2,3.113c-.468-.273-.928-.569-1.373-.874-4.564-3.152-8.176-8.027-8.176-12.029a4.975,4.975,0,0,1,3.6-4.782,5.046,5.046,0,0,1,1.381-.2,4.924,4.924,0,0,1,2.988,1.006c.07.14.133.2.187.156a4.961,4.961,0,0,1,1.232,1.513c.055.109.109.211.164.328V64.27c.016-.031.031-.07.047-.1a4.327,4.327,0,0,1,.453-.78,4.9,4.9,0,0,1,2.684-1.911,4.728,4.728,0,0,1,1.381-.2A4.976,4.976,0,0,1,74.171,66.252Z" fill="#ef5261"/></g></svg>
