<svg id="Capa_1" enable-background="new 0 0 512 512" height="512" viewBox="0 0 512 512" width="512" xmlns="http://www.w3.org/2000/svg"><g><g><path d="m110.758 34.087 66.021 154.962c10.984 25.783 28.486 48.502 50.614 65.701 7.297 5.672 15.06 10.694 23.17 15.051l19.813-46.374-19.813-72.855z" fill="#bcddfe"/><path d="m250.563 150.572v119.229c16.482 8.854 34.425 14.916 52.988 17.787l111.046 17.174 13.874-5.959z" fill="#9bbada"/></g><g><g><path d="m114.807 0-20.011 22.351 155.767 139.461 12.937-13.708-12.937-26.558z" fill="#e1f4ff"/><path d="m441.947 292.897-191.384-171.351v40.266l171.374 153.436z" fill="#bcddfe"/></g><path d="m90.269 245.914 74.466-7.21 40.404-34.901-19.111-21.614-33.325 27.54-69.419 6.01z" fill="#ffdfcf"/><path d="m296.771 137.47c-4.865-4.949-12.667-5.135-17.764-.423l-5.539 5.006 19.303 17.282 3.889-3.86c4.97-4.933 5.021-13.01.111-18.005z" fill="none"/></g><g><path d="m186.028 182.189 19.111 21.614 45.424-41.051 8.807-26.105-8.807-14.156z" fill="#2d6994"/></g><g><g><path d="m163.004 317.285h30v94.004h-30z" fill="#ffcebf" transform="matrix(.694 -.72 .72 .694 -207.882 239.859)"/></g></g><g><path d="m202.143 292.44-106.791 43.666 45.811 13.874 55.4-22.847 59.437 50.792 4.714-16.257-4.714-23.204z" fill="#ffdfcf"/><path d="m280.468 359.373-24.468-20.909v39.461l4.979 4.254z" fill="#ffcebf"/></g><g><path d="m119.794 418.88 136.206-8.329 13.614-19.073-13.614-29.81z" fill="#fd652b"/><path d="m511.942 272.676-.633-18.248-255.309 107.24v48.883l95.6-5.846 104.134-42.215.437-.187c35.219-15.849 57.11-51.03 55.771-89.627z" fill="#ee3a1b"/></g><path d="m141.163 349.98-66.04 27.776-57.879-134.241 66.04-27.776z" fill="#badb47"/><path d="m38.688 126.859c-21.333 0-38.688 17.348-38.688 38.672s17.355 38.672 38.688 38.672 38.688-17.348 38.688-38.672-17.355-38.672-38.688-38.672z" fill="#ffdfcf"/><g><g><g><g><g><path d="m255.993 407.312c-17.991 0-26.475-3.977-36.299-8.582-11.417-5.352-24.357-11.418-49.032-11.418-24.674 0-37.614 6.066-49.031 11.418-9.824 4.605-18.308 8.582-36.3 8.582s-26.476-3.977-36.3-8.582c-11.417-5.352-24.357-11.418-49.031-11.418v50.024l35.977 25.298h220.023l14.376-26.113-14.376-29.209c-.002 0-.004 0-.007 0z" fill="#7be2f6"/></g></g></g></g><path d="m462.965 398.73c-9.824 4.605-18.309 8.582-36.302 8.582s-26.479-3.977-36.303-8.582c-11.418-5.352-24.359-11.418-49.034-11.418s-37.616 6.066-49.033 11.418c-9.823 4.604-18.307 8.581-36.293 8.582v55.322h217.783l38.217-25.298v-50.024c-24.676 0-37.617 6.066-49.035 11.418z" fill="#29cce8"/><g><path d="m256 512 14.376-38.726-14.376-15.938c-17.996.001-26.48-3.976-36.306-8.582-11.417-5.352-24.357-11.418-49.032-11.418-24.674 0-37.614 6.066-49.031 11.418-9.824 4.605-18.308 8.582-36.3 8.582s-26.476-3.977-36.3-8.582c-11.417-5.352-24.357-11.418-49.031-11.418v74.664z" fill="#9ffcfe"/><path d="m512 512v-74.664c-24.676 0-37.617 6.066-49.035 11.418-9.824 4.605-18.309 8.582-36.302 8.582s-26.479-3.977-36.303-8.582c-11.418-5.352-24.359-11.418-49.034-11.418s-37.616 6.066-49.033 11.418c-9.823 4.604-18.307 8.581-36.293 8.582v54.664z" fill="#7be2f6"/></g></g><path d="m318.165 116.439c-16.304-16.584-42.449-17.208-59.525-1.419l-8.077 7.471v40.261l28.444-25.705c5.097-4.712 12.899-4.525 17.764.423 4.91 4.995 4.86 13.071-.111 18.005l-3.889 3.86 22.39 20.046 2.631-2.611c16.657-16.531 16.824-43.595.373-60.331z" fill="#2d5177"/></g></svg>